name: creep
foundry: gbdfed
copyright: Copyright romeovs 2013
point-size: 12
dpi: 96 96
spacing: monospace
cap-height: 7
ascent: 9
descent: 2
offset: -1 -3
tracking: 1
encoding: unicode
default-char: u+0000
converter: monobit v0.12
source-name: creep.bdf
source-format: BDF v2.1
bdf.-TTF-PSNAME: "creep"
bdf.-OTF-FONTFILE: "creep2.ttf"
bdf.-GBDFED-INFO: "Edited with gbdfed 1.6."
bdf.AVG-LOWERCASE-WIDTH: 4

char10254:
    .......
    .......
    .......
    ...@...
    .......
    .@.....
    .......
    .@.....
    .......
    .......
    .......
    .......

u+0020:
spacehackarabic:
    .......
    .......
    .......
    .......
    .......
    .......
    .......
    .......
    .......
    .......
    .......
    .......
    .......

u+0021:
exclam:
    .......
    .......
    .......
    ...@...
    ...@...
    ...@...
    ...@...
    ...@...
    .......
    ...@...
    .......
    .......

u+0022:
quotedbl:
    .......
    .......
    .......
    .......
    .......
    .......
    .......
    ..@.@..
    ..@.@..
    ..@.@..
    .......
    .......

u+0023:
numbersign:
    .......
    .......
    .......
    ..@.@..
    .@@@@@.
    ..@.@..
    .@@@@@.
    ..@.@..
    .......
    .......
    .......
    .......

u+0024:
dollar:
    .......
    .......
    .......
    ...@...
    ..@@@@.
    .@.@...
    ..@@@..
    ...@.@.
    .@@@@..
    ...@...
    .......
    .......

u+0025:
percent:
    .......
    .......
    .......
    .......
    .@..@..
    ...@...
    ..@....
    .@..@..
    .......
    .......
    .......
    .......

u+0026:
ampersand:
    .......
    .......
    .......
    ..@....
    .@.@...
    .@.@...
    ..@....
    .@.@.@.
    .@..@..
    ..@@@@.
    .......
    .......

u+0027:
quotesingle:
    .......
    .......
    .......
    .......
    .......
    .......
    .......
    ...@...
    ...@...
    ...@...
    .......
    .......

u+0028:
parenleft:
    .......
    ...@...
    ..@....
    .@.....
    .@.....
    .@.....
    .@.....
    .@.....
    ..@....
    ...@...
    .......
    .......

u+0029:
parenright:
    .......
    .@.....
    ..@....
    ...@...
    ...@...
    ...@...
    ...@...
    ...@...
    ..@....
    .@.....
    .......
    .......

u+002a:
asterisk:
    .......
    .......
    .......
    .......
    .@.@...
    ..@....
    .@.@...
    .......
    .......
    .......
    .......
    .......

u+002b:
plus:
    .......
    .......
    .......
    ...@...
    ...@...
    .@@@@@.
    ...@...
    ...@...
    .......
    .......
    .......
    .......

u+002c:
comma:
    .......
    .......
    ...@...
    ..@....
    .......
    .......
    .......
    .......
    .......
    .......
    .......
    .......

u+002d:
hyphen:
    .......
    .......
    .......
    .......
    .......
    .@@@@..
    .......
    .......
    .......
    .......
    .......
    .......

u+002e:
period:
    .......
    .......
    .......
    ...@...
    .......
    .......
    .......
    .......
    .......
    .......
    .......
    .......

u+002f:
slash:
    .......
    .......
    ....@..
    ....@..
    ...@...
    ...@...
    ..@....
    ..@....
    .@.....
    .@.....
    .......
    .......

u+0030:
zero:
    .......
    .......
    .......
    ..@@...
    .@..@..
    .@..@..
    .@.@@..
    .@@.@..
    .@..@..
    ..@@...
    .......
    .......

u+0031:
one:
    .......
    .......
    .......
    ...@...
    ..@@...
    ...@...
    ...@...
    ...@...
    ...@...
    ...@...
    .......
    .......

u+0032:
two:
    .......
    .......
    .......
    ..@@...
    .@..@..
    ....@..
    ...@...
    ..@....
    .@.....
    .@@@@..
    .......
    .......

u+0033:
three:
    .......
    .......
    .......
    .@@@@..
    ....@..
    ...@...
    ..@@...
    ....@..
    .@..@..
    ..@@...
    .......
    .......

u+0034:
four:
    .......
    .......
    .......
    ..@@...
    ..@@...
    .@.@...
    .@.@...
    .@@@@..
    ...@...
    ...@...
    .......
    .......

u+0035:
five:
    .......
    .......
    .......
    .@@@@..
    .@.....
    .@@@...
    .@..@..
    ....@..
    .@..@..
    ..@@...
    .......
    .......

u+0036:
six:
    .......
    .......
    .......
    ..@@...
    .@..@..
    .@.....
    .@@@...
    .@..@..
    .@..@..
    ..@@...
    .......
    .......

u+0037:
seven:
    .......
    .......
    .......
    .@@@@..
    ....@..
    ....@..
    ...@...
    ...@...
    ..@....
    ..@....
    .......
    .......

u+0038:
eight:
    .......
    .......
    .......
    ..@@...
    .@..@..
    .@..@..
    ..@@...
    .@..@..
    .@..@..
    ..@@...
    .......
    .......

u+0039:
nine:
    .......
    .......
    .......
    ..@@...
    .@..@..
    .@..@..
    ..@@@..
    ....@..
    .@..@..
    ..@@...
    .......
    .......

u+003a:
colon:
    .......
    .......
    .......
    .......
    ..@....
    .......
    ..@....
    .......
    .......
    .......
    .......
    .......

u+003b:
semicolon:
    .......
    .......
    .......
    ..@....
    .......
    ..@....
    .@.....
    .......
    .......
    .......
    .......
    .......

u+003c:
less:
    .......
    .......
    .......
    ...@...
    ..@....
    .@.....
    ..@....
    ...@...
    .......
    .......
    .......
    .......

u+003d:
equal:
    .......
    .......
    .......
    .......
    .@@@@..
    .......
    .@@@@..
    .......
    .......
    .......
    .......
    .......

u+003e:
greater:
    .......
    .......
    .......
    .@.....
    ..@....
    ...@...
    ..@....
    .@.....
    .......
    .......
    .......
    .......

u+003f:
question:
    .......
    .......
    .......
    .@@@...
    ....@..
    ...@@..
    ..@....
    ..@....
    .......
    ..@....
    .......
    .......

u+0040:
at:
    .......
    .......
    .......
    .@@@@..
    .@..@..
    .@.@@..
    .@.@@..
    .@.....
    .@@@@..
    .......
    .......
    .......

u+0041:
A:
    .......
    .......
    .......
    ..@@...
    .@..@..
    .@..@..
    .@@@@..
    .@..@..
    .@..@..
    .@..@..
    .......
    .......

u+0042:
B:
    .......
    .......
    .......
    .@@....
    .@.@...
    .@.@...
    .@@@...
    .@..@..
    .@..@..
    .@@@@..
    .......
    .......

u+0043:
C:
    .......
    .......
    .......
    ..@@...
    .@..@..
    .@.....
    .@.....
    .@.....
    .@..@..
    ..@@...
    .......
    .......

u+0044:
D:
    .......
    .......
    .......
    .@@....
    .@.@...
    .@..@..
    .@..@..
    .@..@..
    .@.@...
    .@@....
    .......
    .......

u+0045:
E:
    .......
    .......
    .......
    .@@@@..
    .@.....
    .@.....
    .@@....
    .@.....
    .@.....
    .@@@@..
    .......
    .......

u+0046:
F:
    .......
    .......
    .......
    .@@@@..
    .@.....
    .@.....
    .@@....
    .@.....
    .@.....
    .@.....
    .......
    .......

u+0047:
G:
    .......
    .......
    .......
    ..@@...
    .@..@..
    .@.....
    .@.....
    .@.@@..
    .@..@..
    ..@@...
    .......
    .......

u+0048:
H:
    .......
    .......
    .......
    .@..@..
    .@..@..
    .@@@@..
    .@..@..
    .@..@..
    .@..@..
    .@..@..
    .......
    .......

u+0049:
I:
    .......
    .......
    .......
    .@@@...
    ..@....
    ..@....
    ..@....
    ..@....
    ..@....
    .@@@...
    .......
    .......

u+004a:
J:
    .......
    .......
    .......
    ..@@@..
    ....@..
    ....@..
    ....@..
    ....@..
    .@..@..
    ..@@@..
    .......
    .......

u+004b:
K:
    .......
    .......
    .......
    .@..@..
    .@.@...
    .@@....
    .@.@...
    .@.@...
    .@..@..
    .@..@..
    .......
    .......

u+004c:
L:
    .......
    .......
    .......
    .@.....
    .@.....
    .@.....
    .@.....
    .@.....
    .@.....
    .@@@@..
    .......
    .......

u+004d:
M:
    .......
    .......
    .......
    .@..@..
    .@@@@..
    .@@@@..
    .@..@..
    .@..@..
    .@..@..
    .@..@..
    .......
    .......

u+004e:
N:
    .......
    .......
    .......
    .@..@..
    .@@.@..
    .@@.@..
    .@.@@..
    .@.@@..
    .@..@..
    .@..@..
    .......
    .......

u+004f:
O:
    .......
    .......
    .......
    ..@@...
    .@..@..
    .@..@..
    .@..@..
    .@..@..
    .@..@..
    ..@@...
    .......
    .......

u+0050:
P:
    .......
    .......
    .......
    .@@@...
    .@..@..
    .@..@..
    .@@@...
    .@.....
    .@.....
    .@.....
    .......
    .......

u+0051:
Q:
    .......
    .......
    ..@@...
    .@..@..
    .@..@..
    .@..@..
    .@..@..
    .@.@@..
    ..@@@..
    ....@..
    .......
    .......

u+0052:
R:
    .......
    .......
    .......
    .@@@...
    .@..@..
    .@..@..
    .@@@...
    .@@....
    .@.@...
    .@..@..
    .......
    .......

u+0053:
S:
    .......
    .......
    .......
    ..@@...
    .@..@..
    .@.....
    ..@@...
    ....@..
    .@..@..
    ..@@...
    .......
    .......

u+0054:
T:
    .......
    .......
    .......
    .@@@...
    ..@....
    ..@....
    ..@....
    ..@....
    ..@....
    ..@....
    .......
    .......

u+0055:
U:
    .......
    .......
    .......
    .@..@..
    .@..@..
    .@..@..
    .@..@..
    .@..@..
    .@..@..
    ..@@@..
    .......
    .......

u+0056:
V:
    .......
    .......
    .......
    .@..@..
    .@..@..
    .@..@..
    .@..@..
    .@..@..
    .@..@..
    ..@@...
    .......
    .......

u+0057:
W:
    .......
    .......
    .......
    .@..@..
    .@..@..
    .@..@..
    .@..@..
    .@@@@..
    .@@@@..
    .@..@..
    .......
    .......

u+0058:
X:
    .......
    .......
    .......
    .@..@..
    .@..@..
    ..@@...
    .@..@..
    .@..@..
    .@..@..
    .@..@..
    .......
    .......

u+0059:
Y:
    .......
    .......
    .......
    .@..@..
    .@..@..
    .@..@..
    ..@@@..
    ....@..
    .@..@..
    ..@@@..
    .......
    .......

u+005a:
Z:
    .......
    .......
    .......
    .@@@@..
    ....@..
    ....@..
    ...@...
    ..@....
    .@.....
    .@@@@..
    .......
    .......

u+005b:
bracketleft:
    .......
    ..@@...
    ..@....
    ..@....
    ..@....
    ..@....
    ..@....
    ..@....
    ..@....
    ..@@...
    .......
    .......

u+005c:
backslash:
    .......
    .......
    .@.....
    .@.....
    ..@....
    ..@....
    ...@...
    ...@...
    ....@..
    ....@..
    .......
    .......

u+005d:
bracketright:
    .......
    ..@@...
    ...@...
    ...@...
    ...@...
    ...@...
    ...@...
    ...@...
    ...@...
    ..@@...
    .......
    .......

u+005e:
asciicircum:
    .......
    .......
    .......
    .......
    .......
    .......
    .......
    .......
    ...@...
    ..@.@..
    .......
    .......

u+005f:
underscore:
    .......
    .......
    .......
    .@@@@..
    .......
    .......
    .......
    .......
    .......
    .......
    .......
    .......

u+0060:
grave:
    .......
    .......
    .......
    .......
    .......
    .......
    .......
    .......
    ..@....
    ...@...
    .......
    .......

u+0061:
a:
    .......
    .......
    .......
    ..@@@..
    .@..@..
    .@..@..
    .@..@..
    ..@@@..
    .......
    .......
    .......
    .......

u+0062:
b:
    .......
    .......
    .......
    .@.....
    .@.....
    .@@@...
    .@..@..
    .@..@..
    .@..@..
    .@@@...
    .......
    .......

u+0063:
c:
    .......
    .......
    .......
    ..@@...
    .@..@..
    .@.....
    .@..@..
    ..@@...
    .......
    .......
    .......
    .......

u+0064:
d:
    .......
    .......
    .......
    ....@..
    ....@..
    ..@@@..
    .@..@..
    .@..@..
    .@..@..
    ..@@@..
    .......
    .......

u+0065:
e:
    .......
    .......
    .......
    ..@@...
    .@..@..
    .@@@@..
    .@.....
    ..@@@..
    .......
    .......
    .......
    .......

u+0066:
f:
    .......
    ...@...
    ..@.@..
    ..@....
    .@@@...
    ..@....
    ..@....
    ..@....
    ..@....
    .@.....
    .......
    .......

u+0067:
g:
    .......
    ..@@@..
    .@..@..
    .@..@..
    .@..@..
    ..@@@..
    ....@..
    ..@@...
    .......
    .......
    .......
    .......

u+0068:
h:
    .......
    .......
    .......
    .@.....
    .@.....
    .@@@...
    .@..@..
    .@..@..
    .@..@..
    .@..@..
    .......
    .......

u+0069:
i:
    .......
    .......
    .......
    ..@....
    .......
    .@@....
    ..@....
    ..@....
    ..@....
    ..@@...
    .......
    .......

u+006a:
j:
    .......
    ...@...
    .......
    ..@@...
    ...@...
    ...@...
    ...@...
    ...@...
    ...@...
    ..@....
    .......
    .......

u+006b:
k:
    .......
    .......
    .......
    .@.....
    .@.....
    .@..@..
    .@.@...
    .@@....
    .@.@...
    .@..@..
    .......
    .......

u+006c:
l:
    .......
    .......
    .......
    ..@....
    ..@....
    ..@....
    ..@....
    ..@....
    ..@....
    ...@...
    .......
    .......

u+006d:
m:
    .......
    .......
    .......
    .@..@..
    .@@@@..
    .@..@..
    .@..@..
    .@..@..
    .......
    .......
    .......
    .......

u+006e:
n:
    .......
    .......
    .......
    .@@@...
    .@..@..
    .@..@..
    .@..@..
    .@..@..
    .......
    .......
    .......
    .......

u+006f:
o:
    .......
    .......
    .......
    ..@@...
    .@..@..
    .@..@..
    .@..@..
    ..@@...
    .......
    .......
    .......
    .......

u+0070:
p:
    .......
    .@@@...
    .@..@..
    .@..@..
    .@..@..
    .@@@...
    .@.....
    .@.....
    .......
    .......
    .......
    .......

u+0071:
q:
    .......
    ..@@@..
    .@..@..
    .@..@..
    .@..@..
    ..@@@..
    ....@..
    ....@..
    .......
    .......
    .......
    .......

u+0072:
r:
    .......
    .......
    .......
    .@@@...
    .@..@..
    .@.....
    .@.....
    .@.....
    .......
    .......
    .......
    .......

u+0073:
s:
    .......
    .......
    .......
    ..@@@..
    .@.....
    ..@@...
    ....@..
    .@@@...
    .......
    .......
    .......
    .......

u+0074:
t:
    .......
    .......
    .......
    ..@....
    ..@....
    .@@@...
    ..@....
    ..@....
    ..@....
    ...@...
    .......
    .......

u+0075:
u:
    .......
    .......
    .......
    .@..@..
    .@..@..
    .@..@..
    .@..@..
    ..@@@..
    .......
    .......
    .......
    .......

u+0076:
v:
    .......
    .......
    .......
    .@..@..
    .@..@..
    .@..@..
    .@..@..
    ..@@...
    .......
    .......
    .......
    .......

u+0077:
w:
    .......
    .......
    .......
    .@..@..
    .@..@..
    .@..@..
    .@@@@..
    .@..@..
    .......
    .......
    .......
    .......

u+0078:
x:
    .......
    .......
    .......
    .@..@..
    .@..@..
    ..@@...
    .@..@..
    .@..@..
    .......
    .......
    .......
    .......

u+0079:
y:
    .......
    .@..@..
    .@..@..
    .@..@..
    .@..@..
    ..@@@..
    .@..@..
    ..@@...
    .......
    .......
    .......
    .......

u+007a:
z:
    .......
    .......
    .......
    .@@@@..
    ...@...
    ..@....
    .@.....
    .@@@@..
    .......
    .......
    .......
    .......

u+007b:
braceleft:
    .......
    ...@@..
    ..@....
    ..@....
    ..@....
    .@.....
    ..@....
    ..@....
    ..@....
    ...@@..
    .......
    .......

u+007c:
verticalbar:
    .......
    .......
    .......
    ...@...
    ...@...
    ...@...
    ...@...
    ...@...
    ...@...
    ...@...
    .......
    .......

u+007d:
braceright:
    .......
    .@@....
    ...@...
    ...@...
    ...@...
    ....@..
    ...@...
    ...@...
    ...@...
    .@@....
    .......
    .......

u+007e:
asciitilde:
    .......
    .......
    .......
    .......
    ..@.@..
    .@.@...
    .......
    .......
    .......
    .......
    .......
    .......

u+00a1:
exclamdown:
    .......
    .......
    .......
    ...@...
    .......
    ...@...
    ...@...
    ...@...
    ...@...
    ...@...
    .......
    .......

u+00a2:
cent:
    .......
    .......
    ..@....
    ..@@...
    .@@.@..
    .@@....
    .@@.@..
    ..@@...
    ..@....
    .......
    .......
    .......

u+00a3:
sterling:
    .......
    .......
    .......
    ..@@...
    .@..@..
    .@.....
    .@@....
    .@.....
    .@@.@..
    .@.@@..
    .......
    .......

u+00a4:
currency:
    .......
    .......
    .......
    .......
    .@..@..
    ..@@...
    ..@@...
    .@..@..
    .......
    .......
    .......
    .......

u+00a5:
yen:
    .......
    .......
    .......
    .@.@...
    .@.@...
    @@@@@..
    .@.@...
    @@@@@..
    ..@....
    ..@....
    .......
    .......

u+00a6:
brokenbar:
    .......
    .......
    .......
    ...@...
    ...@...
    ...@...
    .......
    ...@...
    ...@...
    ...@...
    .......
    .......

u+00a7:
section:
    .......
    .......
    .......
    ..@@...
    .@..@..
    .@@@...
    .@..@..
    ..@@@..
    .@..@..
    ..@@...
    .......
    .......

u+00a8:
dieresis:
    .......
    .......
    .......
    .......
    .......
    .......
    .......
    .......
    .......
    .@.@...
    .......
    .......

u+00a9:
copyright:
    .......
    .......
    .......
    ..@@...
    .@..@..
    @.@@.@.
    @.@..@.
    @.@@.@.
    .@..@..
    ..@@...
    .......
    .......

u+00aa:
ordfeminine:
    .......
    .......
    .......
    ..@....
    .@.@...
    ..@@...
    .@.@...
    .@@@@..
    .......
    .......
    .......
    .......

u+00ab:
guillemotleft:
    .......
    .......
    .......
    .......
    ..@.@..
    .@.@...
    .@.@...
    ..@.@..
    .......
    .......
    .......
    .......

u+00ac:
logicalnot:
    .......
    .......
    .......
    .......
    .......
    .......
    .@@@@..
    ....@..
    .......
    .......
    .......
    .......

u+00ae:
registered:
    .......
    .......
    .......
    ..@@...
    .@..@..
    @.@@.@.
    @.@..@.
    @.@..@.
    .@..@..
    ..@@...
    .......
    .......

u+00af:
macron:
    .......
    .......
    .......
    .......
    .......
    .......
    .......
    .......
    .......
    .@@@@..
    .......
    .......

u+00b0:
degree:
    .......
    .......
    .......
    .......
    .......
    .......
    ...@...
    ..@.@..
    ...@...
    .......
    .......
    .......

u+00b1:
plusminus:
    .......
    .......
    .......
    ...@...
    ...@...
    .@@@@@.
    ...@...
    .@@@@@.
    .......
    .......
    .......
    .......

u+00b2:
twosuperior:
    .......
    .......
    .......
    .......
    .......
    .......
    ...@@..
    ..@.@..
    ...@...
    ..@@@..
    .......
    .......

u+00b3:
threesuperior:
    .......
    .......
    .......
    .......
    .......
    .......
    ..@@@..
    ...@...
    ....@..
    ..@@...
    .......
    .......

u+00b4:
acute:
    .......
    .......
    .......
    .......
    .......
    .......
    .......
    ...@...
    ..@....
    .......
    .......
    .......

u+00b5:
mu1:
    .......
    .@..@..
    .@..@..
    .@..@..
    .@..@..
    .@@@...
    .@.....
    @......
    .......
    .......
    .......
    .......

u+00b6:
paragraph:
    .......
    ..@@@..
    .@@.@..
    .@@.@..
    .@@.@..
    ..@.@..
    ..@.@..
    ..@.@..
    ..@@...
    .......
    .......
    .......

u+00b7:
middot:
    .......
    .......
    .......
    .......
    .......
    ...@...
    .......
    .......
    .......
    .......
    .......
    .......

u+00b8:
cedilla:
    ..@....
    ...@...
    .@@....
    .......
    .......
    .......
    .......
    .......
    .......
    .......
    .......
    .......

u+00b9:
onesuperior:
    .......
    .......
    .......
    .......
    .......
    .......
    ..@@...
    ...@...
    ...@...
    ..@@@..
    .......
    .......

u+00ba:
ordmasculine:
    .......
    .......
    .......
    .......
    ..@....
    .@.@...
    ..@....
    .......
    .@@@...
    .......
    .......
    .......

u+00bb:
guillemotright:
    .......
    .......
    .......
    .......
    .@.@...
    ..@.@..
    ..@.@..
    .@.@...
    .......
    .......
    .......
    .......

u+00bc:
onequarter:
    .......
    .......
    ...@...
    ...@...
    .......
    .@@@@..
    .......
    ..@.@..
    ..@@@..
    ....@..
    .......
    .......

u+00bd:
onehalf:
    .......
    ...@...
    ...@...
    .......
    .@@@@..
    .......
    ...@...
    ..@.@..
    ...@...
    ..@@@..
    .......
    .......

u+00bf:
questiondown:
    .......
    .......
    .......
    ...@...
    .......
    ...@...
    ...@...
    .@@....
    .@.....
    ..@@@..
    .......
    .......

u+00c0:
Agrave:
    .......
    .......
    .......
    ..@....
    ...@...
    ..@@...
    .@..@..
    .@..@..
    .@@@@..
    .@..@..
    .@..@..
    .@..@..

u+00c1:
Aacute:
    .......
    .......
    .......
    ...@...
    ..@....
    ..@@...
    .@..@..
    .@..@..
    .@@@@..
    .@..@..
    .@..@..
    .@..@..

u+00c2:
Acircumflex:
    .......
    .......
    .......
    ..@@...
    .@..@..
    ..@@...
    .@..@..
    .@..@..
    .@@@@..
    .@..@..
    .@..@..
    .@..@..

u+00c3:
Atilde:
    .......
    .......
    .......
    ..@.@..
    .@.@...
    ..@@...
    .@..@..
    .@..@..
    .@@@@..
    .@..@..
    .@..@..
    .@..@..

u+00c4:
Adieresis:
    .......
    .......
    .......
    ..@.@..
    .......
    ..@@...
    .@..@..
    .@..@..
    .@@@@..
    .@..@..
    .@..@..
    .@..@..

u+00c5:
Aring:
    .......
    .......
    .......
    ..@....
    .......
    ..@@...
    .@..@..
    .@..@..
    .@@@@..
    .@..@..
    .@..@..
    .@..@..

u+00c6:
AE:
    .......
    .......
    .......
    ..@@@..
    .@.@...
    .@.@...
    .@@@@..
    .@.@...
    .@.@...
    .@.@@..
    .......
    .......

u+00c7:
Ccedilla:
    .......
    ..@@...
    .@..@..
    .@.....
    .@.....
    .@.....
    .@..@..
    ..@@...
    ...@...
    ..@@...
    .......
    .......

u+00c8:
Egrave:
    .......
    .......
    .......
    ..@....
    ...@...
    .@@@@..
    .@.....
    .@.....
    .@@....
    .@.....
    .@.....
    .@@@@..

u+00c9:
Eacute:
    .......
    .......
    .......
    ...@...
    ..@....
    .@@@@..
    .@.....
    .@.....
    .@@....
    .@.....
    .@.....
    .@@@@..

u+00ca:
Ecircumflex:
    .......
    .......
    .......
    ..@@...
    .@..@..
    .@@@@..
    .@.....
    .@.....
    .@@....
    .@.....
    .@.....
    .@@@@..

u+00cb:
Edieresis:
    .......
    .......
    .......
    ..@.@..
    .......
    .@@@@..
    .@.....
    .@.....
    .@@....
    .@.....
    .@.....
    .@@@@..

u+00cc:
Igrave:
    .......
    .......
    .......
    .@.....
    ..@....
    .@@@...
    ..@....
    ..@....
    ..@....
    ..@....
    ..@....
    .@@@...

u+00cd:
Iacute:
    .......
    .......
    .......
    ...@...
    ..@....
    .@@@...
    ..@....
    ..@....
    ..@....
    ..@....
    ..@....
    .@@@...

u+00ce:
Icircumflex:
    .......
    .......
    .......
    ..@....
    .@.@...
    .@@@...
    ..@....
    ..@....
    ..@....
    ..@....
    ..@....
    .@@@...

u+00cf:
Idieresis:
    .......
    .......
    .......
    .@.@...
    .......
    .@@@...
    ..@....
    ..@....
    ..@....
    ..@....
    ..@....
    .@@@...

u+00d0:
Eth:
    .......
    .......
    .......
    .@@....
    .@.@...
    .@..@..
    @@@.@..
    .@..@..
    .@.@...
    .@@....
    .......
    .......

u+00d1:
Ntilde:
    .......
    .......
    .......
    ..@.@..
    .@.@...
    .@..@..
    .@@.@..
    .@@.@..
    .@.@@..
    .@.@@..
    .@..@..
    .@..@..

u+00d2:
Ograve:
    .......
    .......
    .......
    ..@....
    ...@...
    ..@@...
    .@..@..
    .@..@..
    .@..@..
    .@..@..
    .@..@..
    ..@@...

u+00d3:
Oacute:
    .......
    .......
    .......
    ...@...
    ..@....
    ..@@...
    .@..@..
    .@..@..
    .@..@..
    .@..@..
    .@..@..
    ..@@...

u+00d4:
Ocircumflex:
    .......
    .......
    .......
    ..@@...
    .@..@..
    ..@@...
    .@..@..
    .@..@..
    .@..@..
    .@..@..
    .@..@..
    ..@@...

u+00d5:
Otilde:
    .......
    .......
    .......
    ..@.@..
    .@.@...
    ..@@...
    .@..@..
    .@..@..
    .@..@..
    .@..@..
    .@..@..
    ..@@...

u+00d6:
Odieresis:
    .......
    .......
    .......
    ..@.@..
    .......
    ..@@...
    .@..@..
    .@..@..
    .@..@..
    .@..@..
    .@..@..
    ..@@...

u+00d7:
multiply:
    .......
    .......
    .......
    .@..@..
    ..@@...
    ..@@...
    .@..@..
    .......
    .......
    .......
    .......
    .......

u+00d8:
Oslash:
    .......
    .......
    .......
    ..@@.@.
    .@..@@.
    .@.@@..
    .@@.@..
    .@..@..
    @@..@..
    @.@@...
    .......
    .......

u+00d9:
Ugrave:
    .......
    .......
    .......
    ..@....
    ...@...
    .@..@..
    .@..@..
    .@..@..
    .@..@..
    .@..@..
    .@..@..
    ..@@@..

u+00da:
Uacute:
    .......
    .......
    .......
    ...@...
    ..@....
    .@..@..
    .@..@..
    .@..@..
    .@..@..
    .@..@..
    .@..@..
    ..@@@..

u+00db:
Ucircumflex:
    .......
    .......
    .......
    ...@...
    ..@.@..
    .......
    .@..@..
    .@..@..
    .@..@..
    .@..@..
    .@..@..
    ..@@@..

u+00dc:
Udieresis:
    .......
    .......
    .......
    .@..@..
    .......
    .@..@..
    .@..@..
    .@..@..
    .@..@..
    .@..@..
    .@..@..
    ..@@@..

u+00dd:
Yacute:
    .......
    .......
    .......
    ...@...
    ..@....
    .@..@..
    .@..@..
    .@..@..
    ..@@@..
    ....@..
    .@..@..
    ..@@@..

u+00de:
Thorn:
    .......
    .@.....
    .@.....
    .@@@...
    .@..@..
    .@..@..
    .@..@..
    .@@@...
    .@.....
    .@.....
    .......
    .......

u+00df:
germandbls:
    .......
    .@@....
    .@.@...
    .@.@...
    .@@.@..
    .@..@..
    .@@@...
    .@.....
    @......
    .......
    .......
    .......

u+00e0:
agrave:
    .......
    .......
    .......
    ..@....
    ...@...
    .......
    ..@@@..
    .@..@..
    .@..@..
    .@..@..
    ..@@@..
    .......

u+00e1:
aacute:
    .......
    .......
    .......
    ...@...
    ..@....
    .......
    ..@@@..
    .@..@..
    .@..@..
    .@..@..
    ..@@@..
    .......

u+00e2:
acircumflex:
    .......
    .......
    .......
    ...@...
    ..@.@..
    .......
    ..@@@..
    .@..@..
    .@..@..
    .@..@..
    ..@@@..
    .......

u+00e3:
atilde:
    .......
    .......
    .......
    ..@.@..
    .@.@...
    .......
    ..@@@..
    .@..@..
    .@..@..
    .@..@..
    ..@@@..
    .......

u+00e4:
adieresis:
    .......
    .......
    .......
    ..@.@..
    .......
    ..@@@..
    .@..@..
    .@..@..
    .@..@..
    ..@@@..
    .......
    .......

u+00e5:
aring:
    .......
    .......
    .......
    ...@...
    .......
    ..@@@..
    .@..@..
    .@..@..
    .@..@..
    ..@@@..
    .......
    .......

u+00e6:
ae:
    .......
    .......
    .......
    ..@@@..
    .@.@...
    .@@@@..
    .@.@...
    .@.@@..
    .......
    .......
    .......
    .......

u+00e7:
ccedilla:
    .......
    ..@@...
    .@..@..
    .@.....
    .@..@..
    ..@@...
    ...@...
    ..@@...
    .......
    .......
    .......
    .......

u+00e8:
egrave:
    .......
    .......
    .......
    ..@....
    ...@...
    .......
    ..@@...
    .@..@..
    .@@@@..
    .@.....
    ..@@@..
    .......

u+00e9:
eacute:
    .......
    .......
    .......
    ...@...
    ..@....
    .......
    ..@@...
    .@..@..
    .@@@@..
    .@.....
    ..@@@..
    .......

u+00ea:
ecircumflex:
    .......
    .......
    .......
    ...@...
    ..@.@..
    .......
    ..@@...
    .@..@..
    .@@@@..
    .@.....
    ..@@@..
    .......

u+00eb:
edieresis:
    .......
    .......
    .......
    ..@.@..
    .......
    ..@@...
    .@..@..
    .@@@@..
    .@.....
    ..@@@..
    .......
    .......

u+00ec:
igrave:
    .......
    .......
    .......
    .@.....
    ..@....
    .......
    .@@....
    ..@....
    ..@....
    ..@....
    ..@@...
    .......

u+00ed:
iacute:
    .......
    .......
    .......
    ...@...
    ..@....
    .......
    .@@....
    ..@....
    ..@....
    ..@....
    ..@@...
    .......

u+00ee:
icircumflex:
    .......
    .......
    .......
    ..@....
    .@.@...
    .......
    .@@....
    ..@....
    ..@....
    ..@....
    ..@@...
    .......

u+00ef:
idieresis:
    .......
    .......
    .......
    .@.@...
    .......
    .@@....
    ..@....
    ..@....
    ..@....
    ..@@...
    .......
    .......

u+00f0:
eth:
    .......
    .......
    .......
    ..@@...
    ....@..
    ..@@@..
    .@..@..
    .@..@..
    .@..@..
    ..@@...
    .......
    .......

u+00f1:
ntilde:
    .......
    .......
    .......
    ..@.@..
    .@.@...
    .......
    .@@@...
    .@..@..
    .@..@..
    .@..@..
    .@..@..
    .......

u+00f2:
ograve:
    .......
    .......
    .......
    ..@....
    ...@...
    .......
    ..@@...
    .@..@..
    .@..@..
    .@..@..
    ..@@...
    .......

u+00f3:
oacute:
    .......
    .......
    .......
    ..@....
    ...@...
    .......
    ..@@...
    .@..@..
    .@..@..
    .@..@..
    ..@@...
    .......

u+00f4:
ocircumflex:
    .......
    .......
    .......
    ..@@...
    .@..@..
    .......
    ..@@...
    .@..@..
    .@..@..
    .@..@..
    ..@@...
    .......

u+00f5:
otilde:
    .......
    .......
    .......
    ..@.@..
    .@.@...
    .......
    ..@@...
    .@..@..
    .@..@..
    .@..@..
    ..@@...
    .......

u+00f6:
odieresis:
    .......
    .......
    .......
    ..@.@..
    .......
    ..@@...
    .@..@..
    .@..@..
    .@..@..
    ..@@...
    .......
    .......

u+00f7:
divide:
    .......
    .......
    .......
    ..@@...
    .......
    .@@@@..
    .......
    ..@@...
    .......
    .......
    .......
    .......

u+00f8:
oslash:
    .......
    .......
    .......
    .....@.
    ..@@@..
    .@.@@..
    .@@.@..
    .@..@..
    @.@@...
    .......
    .......
    .......

u+00f9:
ugrave:
    .......
    .......
    .......
    ..@....
    ...@...
    .......
    .@..@..
    .@..@..
    .@..@..
    .@..@..
    ..@@@..
    .......

u+00fa:
uacute:
    .......
    .......
    .......
    ...@...
    ..@....
    .......
    .@..@..
    .@..@..
    .@..@..
    .@..@..
    ..@@@..
    .......

u+00fb:
ucircumflex:
    .......
    .......
    .......
    ..@@...
    .@..@..
    .......
    .@..@..
    .@..@..
    .@..@..
    .@..@..
    ..@@@..
    .......

u+00fc:
udieresis:
    .......
    .......
    .......
    ..@.@..
    .......
    .@..@..
    .@..@..
    .@..@..
    .@..@..
    ..@@...
    .......
    .......

u+00fd:
yacute:
    .......
    ...@...
    ..@....
    .......
    .@..@..
    .@..@..
    .@..@..
    .@..@..
    ..@@@..
    .@..@..
    ..@@...
    .......

u+00fe:
thorn:
    .......
    .@.....
    .@.....
    .@@@...
    .@..@..
    .@..@..
    .@@@...
    .@.....
    .@.....
    .......
    .......
    .......

u+00ff:
ydieresis:
    .......
    ..@.@..
    .......
    .@..@..
    .@..@..
    .@..@..
    .@..@..
    ..@@@..
    .@..@..
    ..@@...
    .......
    .......

u+0391:
Alpha:
    .......
    .......
    .......
    ..@@...
    .@..@..
    .@..@..
    .@@@@..
    .@..@..
    .@..@..
    .@..@..
    .......
    .......

u+0392:
Beta:
    .......
    .......
    .......
    .@@....
    .@.@...
    .@.@...
    .@@@...
    .@..@..
    .@..@..
    .@@@@..
    .......
    .......

u+0393:
Gamma:
    .......
    .......
    .......
    .@@@@..
    .@..@..
    .@.....
    .@.....
    .@.....
    .@.....
    .@.....
    .......
    .......

u+0394:
Deltagreek:
    .......
    .......
    .......
    ...@...
    ...@...
    ..@.@..
    ..@.@..
    .@...@.
    .@...@.
    .@@@@@.
    .......
    .......

u+0395:
Epsilon:
    .......
    .......
    .......
    .@@@@..
    .@.....
    .@.....
    .@@....
    .@.....
    .@.....
    .@@@@..
    .......
    .......

u+0396:
Zeta:
    .......
    .......
    .......
    .@@@@..
    ....@..
    ....@..
    ...@...
    ..@....
    .@.....
    .@@@@..
    .......
    .......

u+0397:
Eta:
    .......
    .......
    .......
    .@..@..
    .@..@..
    .@@@@..
    .@..@..
    .@..@..
    .@..@..
    .@..@..
    .......
    .......

u+0398:
Theta:
    .......
    .......
    .......
    ..@@...
    .@..@..
    .@..@..
    .@@@@..
    .@..@..
    .@..@..
    ..@@...
    .......
    .......

u+0399:
Iota:
    .......
    .......
    .......
    .@@@...
    ..@....
    ..@....
    ..@....
    ..@....
    ..@....
    .@@@...
    .......
    .......

u+039a:
Kappa:
    .......
    .......
    .......
    .@..@..
    .@.@...
    .@@....
    .@.@...
    .@.@...
    .@..@..
    .@..@..
    .......
    .......

u+039b:
Lambda:
    .......
    .......
    .......
    ...@...
    ...@...
    ..@.@..
    ..@.@..
    .@...@.
    .@...@.
    .@...@.
    .......
    .......

u+039c:
Mu:
    .......
    .......
    .......
    .@..@..
    .@@@@..
    .@..@..
    .@..@..
    .@..@..
    .@..@..
    .@..@..
    .......
    .......

u+039d:
Nu:
    .......
    .......
    .......
    .@..@..
    .@@.@..
    .@@.@..
    .@.@@..
    .@.@@..
    .@..@..
    .@..@..
    .......
    .......

u+039e:
Xi:
    .......
    .......
    .......
    .@@@@..
    .@..@..
    .......
    ..@@...
    .......
    .@..@..
    .@@@@..
    .......
    .......

u+039f:
Omicron:
    .......
    .......
    .......
    ..@@...
    .@..@..
    .@..@..
    .@..@..
    .@..@..
    .@..@..
    ..@@...
    .......
    .......

u+03a0:
Pi:
    .......
    .......
    .......
    .@@@@..
    .@..@..
    .@..@..
    .@..@..
    .@..@..
    .@..@..
    .@..@..
    .......
    .......

u+03a1:
Rho:
    .......
    .......
    .......
    .@@@...
    .@..@..
    .@..@..
    .@@@...
    .@.....
    .@.....
    .@.....
    .......
    .......

u+03a2:
uni03A2:
    .......
    .......
    .......
    .@@@@..
    .@..@..
    ..@....
    ...@...
    ..@....
    .@..@..
    .@@@@..
    .......
    .......

u+03a3:
Sigma:
    .......
    .......
    .......
    .@@@...
    ..@....
    ..@....
    ..@....
    ..@....
    ..@....
    ..@....
    .......
    .......

u+03a4:
Tau:
    .......
    .......
    .......
    .@..@..
    .@..@..
    .@..@..
    ..@@@..
    ....@..
    .@..@..
    ..@@...
    .......
    .......

u+03a5:
Upsilon:
    .......
    .......
    .......
    ...@...
    ..@@@..
    .@.@.@.
    .@.@.@.
    .@.@.@.
    ..@@@..
    ...@...
    .......
    .......

u+03a6:
Phi:
    .......
    .......
    .......
    .@..@..
    .@..@..
    ..@@...
    .@..@..
    .@..@..
    .@..@..
    .@..@..
    .......
    .......

u+03a7:
Chi:
    .......
    .......
    .......
    .@.@.@.
    .@.@.@.
    .@.@.@.
    ..@@@..
    ...@...
    ...@...
    ...@...
    .......
    .......

u+03a8:
Psi:
    .......
    .......
    .......
    ..@@@..
    .@...@.
    .@...@.
    .@...@.
    .@@.@@.
    ..@.@..
    .@@.@@.
    .......
    .......

u+03a9:
Omegagreek:
    .......
    .......
    .......
    .@.@...
    .......
    .@@@...
    ..@....
    ..@....
    ..@....
    .@@@...
    .......
    .......

u+03b1:
alpha:
    .......
    .......
    .......
    ..@.@..
    .@.@...
    .@.@...
    ..@@@..
    .......
    .......
    .......
    .......
    .......

u+03b2:
beta:
    .......
    .@@....
    .@.@...
    .@.@...
    .@@.@..
    .@..@..
    .@@@...
    .@.....
    @......
    .......
    .......
    .......

u+03b3:
gamma:
    .......
    .@..@..
    ..@@...
    ...@...
    ..@.@..
    ..@.@..
    ...@...
    .......
    .......
    .......
    .......
    .......

u+03b4:
delta:
    .......
    .......
    .......
    .@@@@..
    .@.....
    ..@@...
    .@..@..
    .@..@..
    ..@@...
    .......
    .......
    .......

u+03b5:
epsilon:
    .......
    .......
    .......
    ..@@...
    .@..@..
    ..@....
    .@.....
    .@..@..
    ..@@...
    .......
    .......
    .......

u+03b6:
zeta:
    .......
    .@@@@..
    ...@...
    ..@....
    .@.....
    .@.....
    ..@@@..
    ....@..
    .......
    .......
    .......
    .......

u+03b7:
eta:
    .......
    .@@@...
    .@..@..
    .@..@..
    .@..@..
    .@..@..
    ....@..
    ....@..
    .......
    .......
    .......
    .......

u+03b8:
theta:
    .......
    .......
    .......
    ..@@...
    .@..@..
    .@@@@..
    .@..@..
    ..@@...
    .......
    .......
    .......
    .......

u+03b9:
iota:
    .......
    .......
    .......
    .@@....
    ..@....
    ..@....
    ...@...
    .......
    .......
    .......
    .......
    .......

u+03ba:
kappa:
    .......
    .......
    .......
    .@.@...
    .@@....
    .@@@...
    .@.@...
    .@.@...
    .......
    .......
    .......
    .......

u+03bb:
lambda:
    .......
    .......
    .......
    ..@....
    .@.@...
    ...@...
    ..@@...
    .@.@...
    .@..@..
    .......
    .......
    .......

u+03bc:
mugreek:
    .......
    .@..@..
    .@..@..
    .@..@..
    .@..@..
    .@@@...
    .@.....
    @......
    .......
    .......
    .......
    .......

u+03bd:
nu:
    .......
    .......
    .......
    ...@...
    .@..@..
    ..@.@..
    ..@.@..
    ..@@...
    ..@....
    .......
    .......
    .......

u+03be:
xi:
    .......
    .@@@...
    .@..@..
    ..@....
    .@.....
    .@.....
    ..@@@..
    ....@..
    ..@@...
    .......
    .......
    .......

u+03bf:
omicron:
    .......
    .......
    .......
    ..@@...
    .@..@..
    .@..@..
    .@..@..
    ..@@...
    .......
    .......
    .......
    .......

u+03c0:
pi:
    .......
    .......
    .......
    .@@@@..
    ..@@...
    .@.@...
    .@.@...
    .@..@..
    .......
    .......
    .......
    .......

u+03c1:
rho:
    .......
    ...@...
    ..@.@..
    ..@.@..
    ..@@...
    ..@....
    ..@....
    .@.....
    .......
    .......
    .......
    .......

u+03c2:
sigmafinal:
    .......
    ..@@...
    .@..@..
    .@..@..
    .@.....
    ..@@...
    ....@..
    ...@...
    .......
    .......
    .......
    .......

u+03c3:
sigma:
    .......
    .......
    .......
    .....@.
    ..@@@..
    .@..@..
    .@..@..
    .@..@..
    ..@@...
    .......
    .......
    .......

u+03c4:
tau:
    .......
    .......
    .......
    .@@@@..
    ..@....
    ..@....
    ..@.@..
    ...@...
    .......
    .......
    .......
    .......

u+03c5:
upsilon:
    .......
    .......
    .......
    .@..@..
    .@..@..
    .@..@..
    .@..@..
    ..@@@..
    .......
    .......
    .......
    .......

u+03c6:
phi:
    ..@....
    .@.@@..
    .@@.@..
    .@@@@..
    ..@@...
    ..@....
    ..@....
    ...@...
    .......
    .......
    .......
    .......

u+03c7:
chi:
    .......
    .......
    .@..@..
    ..@@...
    ..@@...
    .@.@...
    ....@..
    .......
    .......
    .......
    .......
    .......

u+03c8:
psi:
    .......
    ...@...
    .@.@.@.
    .@.@.@.
    ..@@@..
    ...@...
    ...@...
    ...@...
    .......
    .......
    .......
    .......

u+03c9:
omega:
    .......
    .......
    .......
    ..@.@..
    .@...@.
    .@...@.
    .@.@.@.
    ..@.@..
    .......
    .......
    .......
    .......

u+1e9e:
uni1E9E:
    .......
    .@@....
    .@.@...
    .@.@...
    .@@.@..
    .@..@..
    .@@@@..
    .@.....
    @@.....
    .......
    .......
    .......

u+2010:
hyphentwo:
    .......
    .......
    .......
    .......
    .......
    .@@@...
    .......
    .......
    .......
    .......
    .......
    .......

u+2011:
uni2011:
    .......
    .......
    .......
    .......
    .......
    .@@@...
    .......
    .......
    .......
    .......
    .......
    .......

u+2012:
figuredash:
    .......
    .......
    .......
    .......
    .......
    .@@@@..
    .......
    .......
    .......
    .......
    .......
    .......

u+2013:
endash:
    .......
    .......
    .......
    .......
    .......
    .@@@@..
    .......
    .......
    .......
    .......
    .......
    .......

u+2014:
emdash:
    .......
    .......
    .......
    .......
    .......
    @@@@@@.
    .......
    .......
    .......
    .......
    .......
    .......

u+2015:
horizontalbar:
    .......
    .......
    .......
    .......
    .......
    @@@@@@.
    .......
    .......
    .......
    .......
    .......
    .......

u+2016:
dblverticalbar:
    .......
    .......
    .......
    ..@.@..
    ..@.@..
    ..@.@..
    ..@.@..
    ..@.@..
    ..@.@..
    ..@.@..
    .......
    .......

u+2017:
underscoredbl:
    .......
    .......
    .@@@@..
    .......
    .@@@@..
    .......
    .......
    .......
    .......
    .......
    .......
    .......

u+2018:
quoteleft:
    .......
    .......
    .......
    .......
    .......
    .......
    .......
    ..@@...
    ..@....
    ...@...
    .......
    .......

u+2019:
quoteright:
    .......
    .......
    .......
    .......
    .......
    .......
    .......
    ..@@...
    ...@...
    ..@....
    .......
    .......

u+201a:
quotesinglbase:
    .......
    ...@@..
    ....@..
    ...@...
    .......
    .......
    .......
    .......
    .......
    .......
    .......
    .......

u+201b:
quoteleftreversed:
    .......
    .......
    .......
    .......
    .......
    .......
    ..@@...
    ..@....
    ...@...
    .......
    .......
    .......

u+201c:
quotedblleft:
    .......
    .......
    .......
    .......
    .......
    .......
    .......
    .@@@@..
    .@.@...
    ..@.@..
    .......
    .......

u+201d:
quotedblright:
    .......
    .......
    .......
    .......
    .......
    .......
    .......
    .@@@@..
    ..@.@..
    .@.@...
    .......
    .......

u+201e:
quotedblbase:
    .......
    .@@@@..
    ..@.@..
    .@.@...
    .......
    .......
    .......
    .......
    .......
    .......
    .......
    .......

u+201f:
uni201F:
    .......
    .......
    .......
    .......
    .......
    .......
    .......
    ..@.@..
    .@.@...
    .@@@@..
    .......
    .......

u+2020:
dagger:
    .......
    .......
    .......
    ..@....
    .@@@...
    ..@....
    ..@....
    ..@....
    .......
    .......
    .......
    .......

u+2021:
daggerdbl:
    .......
    .......
    .......
    ..@....
    .@@@...
    ..@....
    .@@@...
    ..@....
    .......
    .......
    .......
    .......

u+2022:
bullet:
    .......
    .......
    .......
    .......
    ...@...
    ..@.@..
    ...@...
    .......
    .......
    .......
    .......
    .......

u+2023:
uni2023:
    .......
    .......
    .......
    .......
    .@.....
    .@@....
    .@.....
    .......
    .......
    .......
    .......
    .......

u+2024:
onedotenleader:
    .......
    .......
    .......
    ...@...
    .......
    .......
    .......
    .......
    .......
    .......
    .......
    .......

u+2025:
twodotleader:
    .......
    .......
    .......
    ..@.@..
    .......
    .......
    .......
    .......
    .......
    .......
    .......
    .......

u+2026:
ellipsis:
    .......
    .......
    .......
    .@.@.@.
    .......
    .......
    .......
    .......
    .......
    .......
    .......
    .......

u+2027:
uni2027:
    .......
    .......
    .......
    .......
    .......
    ...@...
    .......
    .......
    .......
    .......
    .......
    .......

u+2032:
minute:
    .......
    .......
    .......
    .......
    .......
    .......
    .......
    .......
    ...@...
    ..@....
    .......
    .......

u+2033:
second:
    .......
    .......
    .......
    .......
    .......
    .......
    .......
    .......
    ...@.@.
    ..@.@..
    .......
    .......

u+2034:
uni2034:
    .......
    .......
    .......
    .......
    .......
    .......
    .......
    .......
    ..@.@.@
    .@.@.@.
    .......
    .......

u+2035:
primereversed:
    .......
    .......
    .......
    .......
    .......
    .......
    .......
    .......
    ..@....
    ...@...
    .......
    .......

u+2036:
uni2036:
    .......
    .......
    .......
    .......
    .......
    .......
    .......
    .......
    ..@.@..
    ...@.@.
    .......
    .......

u+2037:
uni2037:
    .......
    .......
    .......
    .......
    .......
    .......
    .......
    .......
    .@.@.@.
    ..@.@.@
    .......
    .......

u+2038:
uni2038:
    .......
    .......
    .......
    ..@....
    .@.@...
    .......
    .......
    .......
    .......
    .......
    .......
    .......

u+2039:
guilsinglleft:
    .......
    .......
    ....@..
    ...@...
    ..@....
    .@.....
    ..@....
    ...@...
    ....@..
    .......
    .......
    .......

u+203a:
guilsinglright:
    .......
    .......
    .@.....
    ..@....
    ...@...
    ....@..
    ...@...
    ..@....
    .@.....
    .......
    .......
    .......

u+203c:
exclamdbl:
    .......
    .......
    .......
    .@.@...
    .@.@...
    .@.@...
    .@.@...
    .@.@...
    .......
    .@.@...
    .......
    .......

u+203d:
char8253:
    .......
    .......
    .......
    .@@@...
    ..@.@..
    ..@@@..
    ..@....
    ..@....
    .......
    ..@....
    .......
    .......

u+203e:
overline:
    .......
    .......
    .......
    .......
    .......
    .......
    .......
    .......
    .......
    .@@@@..
    .......
    .......

u+203f:
uni203F:
    .......
    .......
    .......
    .......
    .......
    .......
    .......
    .......
    .@..@..
    ..@@...
    .......
    .......

u+2040:
uni2040:
    .......
    .......
    .......
    .......
    .......
    .......
    .......
    .......
    ..@@...
    .@..@..
    .......
    .......

u+2041:
uni2041:
    .......
    .......
    .......
    ....@..
    ...@...
    ..@....
    .@.@...
    .......
    .......
    .......
    .......
    .......

u+2042:
asterism:
    .......
    .......
    .......
    .......
    .......
    ..@....
    .......
    .@.@...
    .......
    .......
    .......
    .......

u+2043:
char8259:
    .......
    .......
    .......
    .......
    .......
    .@@@@..
    .......
    .......
    .......
    .......
    .......
    .......

u+2044:
char8260:
    .......
    .......
    ....@..
    ....@..
    ...@...
    ...@...
    ..@....
    ..@....
    .@.....
    .@.....
    .......
    .......

u+2045:
char8261:
    .......
    .......
    ..@@...
    ..@....
    ..@....
    ..@@...
    ..@@...
    ..@....
    ..@....
    ..@@...
    .......
    .......

u+2046:
char8262:
    .......
    .......
    ..@@...
    ...@...
    ...@...
    ..@@...
    ..@@...
    ...@...
    ...@...
    ..@@...
    .......
    .......

u+204f:
uni204F:
    .......
    .......
    ..@....
    .......
    ..@....
    ...@...
    .......
    .......
    .......
    .......
    .......
    .......

u+2050:
uni2050:
    .......
    .......
    .......
    ..@@...
    .@..@..
    .......
    .......
    .@..@..
    ..@@...
    .......
    .......
    .......

u+2051:
uni2051:
    .......
    .......
    .......
    .@.@...
    ..@....
    .@.@...
    .......
    .@.@...
    ..@....
    .@.@...
    .......
    .......

u+20ac:
Euro:
    .......
    .......
    .......
    ..@@@..
    .@.....
    .@@@...
    .@@@...
    .@.....
    ..@@@..
    .......
    .......
    .......

u+2190:
arrowleft:
    .......
    .......
    .......
    .......
    ..@....
    .@@@@@.
    ..@....
    .......
    .......
    .......
    .......
    .......

u+2191:
arrowup:
    .......
    .......
    .......
    ..@....
    .@@@...
    ..@....
    ..@....
    ..@....
    .......
    .......
    .......
    .......

u+2192:
arrowright:
    .......
    .......
    .......
    .......
    ...@...
    @@@@@..
    ...@...
    .......
    .......
    .......
    .......
    .......

u+2193:
arrowdown:
    .......
    .......
    .......
    ..@....
    ..@....
    ..@....
    .@@@...
    ..@....
    .......
    .......
    .......
    .......

u+2194:
arrowboth:
    .......
    .......
    .......
    .......
    .@..@..
    @@@@@@.
    .@..@..
    .......
    .......
    .......
    .......
    .......

u+2195:
arrowupdn:
    .......
    .......
    ..@....
    .@@@...
    ..@....
    ..@....
    .@@@...
    ..@....
    .......
    .......
    .......
    .......

u+2196:
arrowupleft:
    .......
    .......
    .......
    .@@....
    .@@....
    ...@...
    ....@..
    .......
    .......
    .......
    .......
    .......

u+2197:
arrowupright:
    .......
    .......
    .......
    ...@@..
    ...@@..
    ..@....
    .@.....
    .......
    .......
    .......
    .......
    .......

u+2198:
arrowdownright:
    .......
    .......
    .......
    .@.....
    ..@....
    ...@@..
    ...@@..
    .......
    .......
    .......
    .......
    .......

u+2199:
arrowdownleft:
    .......
    .......
    .......
    ....@..
    ...@...
    .@@....
    .@@....
    .......
    .......
    .......
    .......
    .......

u+21d0:
arrowdblleft:
    .......
    .......
    .......
    ..@....
    .@@@@@.
    @@.....
    .@@@@@.
    ..@....
    .......
    .......
    .......
    .......

u+21d1:
arrowdblup:
    .......
    .......
    .......
    .......
    .......
    .......
    .......
    .......
    .......
    .......
    .......
    .......
    .......

u+21d2:
dblarrowright:
    .......
    .......
    .......
    ..@....
    @@@@...
    ...@@..
    @@@@...
    ..@....
    .......
    .......
    .......
    .......

u+21ea:
char8682:
    .......
    .......
    ...@...
    ..@.@..
    .@...@.
    ..@.@..
    ..@.@..
    ..@@@..
    .......
    ..@@@..
    .......
    .......

u+2200:
forall:
    .......
    .......
    .......
    .@..@..
    .@..@..
    .@..@..
    .@@@@..
    .@..@..
    .@..@..
    ..@@...
    .......
    .......

u+2201:
uni2201:
    .......
    .......
    .......
    ..@@...
    .@..@..
    .@.@...
    .@.....
    .@..@..
    .@..@..
    ..@@...
    .......
    .......

u+2202:
partialdiff:
    .......
    .......
    .......
    ..@@...
    .@..@..
    ....@..
    ..@@@..
    .@..@..
    .@..@..
    ..@@...
    .......
    .......

u+2203:
thereexists:
    .......
    .......
    .......
    .@@@@..
    ....@..
    ....@..
    ..@@@..
    ....@..
    ....@..
    .@@@@..
    .......
    .......

u+2204:
uni2204:
    .......
    .......
    .......
    ....@..
    .@@@@..
    ...@@..
    ..@.@..
    ..@@@..
    .@..@..
    .@..@..
    @@@@@..
    .......

u+2205:
emptyset:
    .......
    .......
    .......
    ....@..
    ..@@...
    .@.@@..
    .@@.@..
    ..@@...
    .@.....
    .......
    .......
    .......

u+2206:
increment:
    .......
    .......
    .......
    .......
    ...@...
    ..@.@..
    .@...@.
    .@@@@@.
    .......
    .......
    .......
    .......

u+2207:
gradient:
    .......
    .......
    .......
    .......
    .......
    .@@@@@.
    .@...@.
    ..@.@..
    ...@...
    .......
    .......
    .......

u+2208:
element:
    .......
    .......
    .......
    ..@@@..
    .@.....
    .@@@...
    .@.....
    ..@@@..
    .......
    .......
    .......
    .......

u+2209:
notelement:
    .......
    .......
    .......
    .....@.
    ..@@@..
    .@.@...
    .@@@...
    .@.....
    @.@@@..
    .......
    .......
    .......

u+220a:
uni220A:
    .......
    .......
    .......
    ..@@@..
    .@.....
    .@@@...
    .@.....
    ..@@@..
    .......
    .......
    .......
    .......

u+220b:
suchthat:
    .......
    .......
    .......
    .@@@...
    ....@..
    ..@@@..
    ....@..
    .@@@...
    .......
    .......
    .......
    .......

u+220c:
notcontains:
    .......
    .......
    .......
    .....@.
    .@@@@..
    ...@@..
    ..@@@..
    .@..@..
    @@@@...
    .......
    .......
    .......

u+220d:
uni220D:
    .......
    .......
    .......
    .@@@...
    ....@..
    ..@@@..
    ....@..
    .@@@...
    .......
    .......
    .......
    .......

u+220e:
uni220E:
    .......
    .......
    .......
    .......
    ..@@@..
    ..@@@..
    ..@@@..
    .......
    .......
    .......
    .......
    .......

u+220f:
product:
    .......
    .......
    .......
    @@@@@@.
    .@..@..
    .@..@..
    .@..@..
    .@..@..
    .@..@..
    .......
    .......
    .......

u+2210:
uni2210:
    .......
    .......
    .......
    .@..@..
    .@..@..
    .@..@..
    .@..@..
    .@..@..
    @@@@@@.
    .......
    .......
    .......

u+2211:
summation:
    .......
    .......
    .......
    .@@@@..
    .@..@..
    ..@....
    ..@....
    .@..@..
    .@@@@..
    .......
    .......
    .......

u+2212:
minus:
    .......
    .......
    .......
    .......
    .......
    .@@@@..
    .......
    .......
    .......
    .......
    .......
    .......

u+2213:
minusplus:
    .......
    .......
    .......
    .@@@...
    .......
    ..@....
    .@@@...
    ..@....
    .......
    .......
    .......
    .......

u+2214:
char8724:
    .......
    .......
    .......
    .......
    ..@....
    .......
    ..@....
    .@@@...
    ..@....
    .......
    .......
    .......

u+2260:
notequal:
    .......
    .......
    .......
    .......
    ...@...
    .@@@@..
    ..@....
    .@@@@..
    .@.....
    .......
    .......
    .......

u+229e:
uni229E:
    .......
    .......
    .......
    .@@@@@.
    .@.@.@.
    .@@@@@.
    .@.@.@.
    .@@@@@.
    .......
    .......
    .......
    .......

u+229f:
uni229F:
    .......
    .......
    .......
    .@@@@@.
    .@...@.
    .@@@@@.
    .@...@.
    .@@@@@.
    .......
    .......
    .......
    .......

u+2500:
SF100000:
    .......
    .......
    .......
    .......
    .......
    .......
    .@@@@@@
    .......
    .......
    .......
    .......
    .......

u+2501:
uni2501:
    .......
    .......
    .......
    .......
    .......
    .......
    .@@@@@@
    .@@@@@@
    .......
    .......
    .......
    .......

u+2502:
SF110000:
    ...@...
    ...@...
    ...@...
    ...@...
    ...@...
    ...@...
    ...@...
    ...@...
    ...@...
    ...@...
    ...@...
    ...@...

u+2503:
uni2503:
    ..@@...
    ..@@...
    ..@@...
    ..@@...
    ..@@...
    ..@@...
    ..@@...
    ..@@...
    ..@@...
    ..@@...
    ..@@...
    ..@@...

u+2504:
uni2504:
    .......
    .......
    .......
    .......
    .......
    .......
    .@.@.@.
    .......
    .......
    .......
    .......
    .......

u+2505:
uni2505:
    .......
    .......
    .......
    .......
    .......
    .......
    .@.@.@.
    .@.@.@.
    .......
    .......
    .......
    .......

u+2506:
uni2506:
    ...@...
    ...@...
    .......
    ...@...
    ...@...
    .......
    ...@...
    ...@...
    .......
    ...@...
    ...@...
    .......

u+2507:
uni2507:
    ..@@...
    ..@@...
    .......
    ..@@...
    ..@@...
    .......
    ..@@...
    ..@@...
    .......
    ..@@...
    ..@@...
    .......

u+2508:
uni2508:
    .......
    .......
    .......
    .......
    .......
    .......
    .@.@.@.
    .......
    .......
    .......
    .......
    .......

u+2509:
uni2509:
    .......
    .......
    .......
    .......
    .......
    .......
    .@.@.@.
    .@.@.@.
    .......
    .......
    .......
    .......

u+250a:
uni250A:
    ...@...
    .......
    ...@...
    .......
    ...@...
    .......
    ...@...
    .......
    ...@...
    .......
    ...@...
    .......

u+250b:
uni250B:
    ..@@...
    .......
    ..@@...
    .......
    ..@@...
    .......
    ..@@...
    .......
    ..@@...
    .......
    ..@@...
    .......

u+250c:
SF010000:
    ...@@@@
    ...@...
    ...@...
    ...@...
    ...@...
    ...@...
    ...@...
    .......
    .......
    .......
    .......
    .......

u+250d:
uni250D:
    ...@@@@
    ...@@@@
    ...@...
    ...@...
    ...@...
    ...@...
    ...@...
    ...@...
    .......
    .......
    .......
    .......

u+250e:
uni250E:
    ..@@@@@
    ..@@...
    ..@@...
    ..@@...
    ..@@...
    ..@@...
    ..@@...
    .......
    .......
    .......
    .......
    .......

u+250f:
uni250F:
    ..@@@@@
    ..@@@@@
    ..@@...
    ..@@...
    ..@@...
    ..@@...
    ..@@...
    ..@@...
    .......
    .......
    .......
    .......

u+2510:
SF030000:
    @@@@...
    ...@...
    ...@...
    ...@...
    ...@...
    ...@...
    ...@...
    .......
    .......
    .......
    .......
    .......

u+2511:
uni2511:
    @@@@...
    @@@@...
    ...@...
    ...@...
    ...@...
    ...@...
    ...@...
    ...@...
    .......
    .......
    .......
    .......

u+2512:
uni2512:
    @@@@...
    ..@@...
    ..@@...
    ..@@...
    ..@@...
    ..@@...
    ..@@...
    .......
    .......
    .......
    .......
    .......

u+2513:
uni2513:
    @@@@...
    @@@@...
    ..@@...
    ..@@...
    ..@@...
    ..@@...
    ..@@...
    ..@@...
    .......
    .......
    .......
    .......

u+2514:
SF020000:
    .......
    .......
    .......
    .......
    .......
    .......
    ...@...
    ...@...
    ...@...
    ...@...
    ...@...
    ...@@@@

u+2515:
uni2515:
    .......
    .......
    .......
    .......
    .......
    .......
    ...@...
    ...@...
    ...@...
    ...@...
    ...@@@@
    ...@@@@

u+2516:
uni2516:
    .......
    .......
    .......
    .......
    .......
    .......
    ..@@...
    ..@@...
    ..@@...
    ..@@...
    ..@@...
    ..@@@@@

u+2517:
uni2517:
    .......
    .......
    .......
    .......
    .......
    .......
    ..@@...
    ..@@...
    ..@@...
    ..@@...
    ..@@@@@
    ..@@@@@

u+2518:
SF040000:
    .......
    .......
    .......
    .......
    .......
    .......
    ...@...
    ...@...
    ...@...
    ...@...
    ...@...
    @@@@...

u+2519:
uni2519:
    .......
    .......
    .......
    .......
    .......
    .......
    ...@...
    ...@...
    ...@...
    ...@...
    @@@@...
    @@@@...

u+251a:
uni251A:
    .......
    .......
    .......
    .......
    .......
    .......
    ..@@...
    ..@@...
    ..@@...
    ..@@...
    ..@@...
    @@@@...

u+251b:
uni251B:
    .......
    .......
    .......
    .......
    .......
    .......
    ..@@...
    ..@@...
    ..@@...
    ..@@...
    @@@@...
    @@@@...

u+251c:
SF080000:
    ...@...
    ...@...
    ...@...
    ...@...
    ...@...
    ...@@@@
    ...@...
    ...@...
    ...@...
    ...@...
    ...@...
    ...@...

u+251d:
uni251D:
    ...@...
    ...@...
    ...@...
    ...@...
    ...@@@@
    ...@@@@
    ...@...
    ...@...
    ...@...
    ...@...
    ...@...
    ...@...

u+251e:
uni251E:
    ..@@...
    ..@@...
    ..@@...
    ..@@...
    ..@@...
    ..@@@@@
    ...@...
    ...@...
    ...@...
    ...@...
    ...@...
    ...@...

u+251f:
uni251F:
    ...@...
    ...@...
    ...@...
    ...@...
    ...@...
    ..@@@@@
    ..@@...
    ..@@...
    ..@@...
    ..@@...
    ..@@...
    ..@@...

u+2520:
uni2520:
    ..@@...
    ..@@...
    ..@@...
    ..@@...
    ..@@...
    ..@@@@@
    ..@@...
    ..@@...
    ..@@...
    ..@@...
    ..@@...
    ..@@...

u+2521:
uni2521:
    ..@@...
    ..@@...
    ..@@...
    ..@@...
    ..@@@@@
    ..@@@@@
    ...@...
    ...@...
    ...@...
    ...@...
    ...@...
    ...@...

u+2522:
uni2522:
    ...@...
    ...@...
    ...@...
    ...@...
    ..@@@@@
    ..@@@@@
    ..@@...
    ..@@...
    ..@@...
    ..@@...
    ..@@...
    ..@@...

u+2523:
uni2523:
    ..@@...
    ..@@...
    ..@@...
    ..@@...
    ..@@@@@
    ..@@@@@
    ..@@...
    ..@@...
    ..@@...
    ..@@...
    ..@@...
    ..@@...

u+2524:
SF090000:
    ...@...
    ...@...
    ...@...
    ...@...
    ...@...
    @@@@...
    ...@...
    ...@...
    ...@...
    ...@...
    ...@...
    ...@...

u+2525:
uni2525:
    ...@...
    ...@...
    ...@...
    ...@...
    @@@@...
    @@@@...
    ...@...
    ...@...
    ...@...
    ...@...
    ...@...
    ...@...

u+2526:
uni2526:
    ..@@...
    ..@@...
    ..@@...
    ..@@...
    ..@@...
    @@@@...
    ...@...
    ...@...
    ...@...
    ...@...
    ...@...
    ...@...

u+2527:
uni2527:
    ...@...
    ...@...
    ...@...
    ...@...
    ...@...
    @@@@...
    ..@@...
    ..@@...
    ..@@...
    ..@@...
    ..@@...
    ..@@...

u+2528:
uni2528:
    ..@@...
    ..@@...
    ..@@...
    ..@@...
    ..@@...
    @@@@...
    ..@@...
    ..@@...
    ..@@...
    ..@@...
    ..@@...
    ..@@...

u+2529:
uni2529:
    ..@@...
    ..@@...
    ..@@...
    ..@@...
    @@@@...
    @@@@...
    ...@...
    ...@...
    ...@...
    ...@...
    ...@...
    ...@...

u+252a:
uni252A:
    ...@...
    ...@...
    ...@...
    ...@...
    @@@@...
    @@@@...
    ..@@...
    ..@@...
    ..@@...
    ..@@...
    ..@@...
    ..@@...

u+252b:
uni252B:
    ..@@...
    ..@@...
    ..@@...
    ..@@...
    @@@@...
    @@@@...
    ..@@...
    ..@@...
    ..@@...
    ..@@...
    ..@@...
    ..@@...

u+252c:
SF060000:
    @@@@@@@
    ...@...
    ...@...
    ...@...
    ...@...
    ...@...
    ...@...
    .......
    .......
    .......
    .......
    .......

u+252d:
uni252D:
    @@@@...
    @@@@@@@
    ...@...
    ...@...
    ...@...
    ...@...
    ...@...
    ...@...
    .......
    .......
    .......
    .......

u+252e:
uni252E:
    ...@@@@
    @@@@@@@
    ...@...
    ...@...
    ...@...
    ...@...
    ...@...
    ...@...
    .......
    .......
    .......
    .......

u+252f:
uni252F:
    @@@@@@@
    @@@@@@@
    ...@...
    ...@...
    ...@...
    ...@...
    ...@...
    ...@...
    .......
    .......
    .......
    .......

u+2530:
uni2530:
    @@@@@@@
    ..@@...
    ..@@...
    ..@@...
    ..@@...
    ..@@...
    ..@@...
    .......
    .......
    .......
    .......
    .......

u+2531:
uni2531:
    @@@@...
    @@@@@@@
    ..@@...
    ..@@...
    ..@@...
    ..@@...
    ..@@...
    ..@@...
    .......
    .......
    .......
    .......

u+2532:
uni2532:
    ..@@@@@
    @@@@@@@
    ..@@...
    ..@@...
    ..@@...
    ..@@...
    ..@@...
    ..@@...
    .......
    .......
    .......
    .......

u+2533:
uni2533:
    @@@@@@@
    @@@@@@@
    ..@@...
    ..@@...
    ..@@...
    ..@@...
    ..@@...
    ..@@...
    .......
    .......
    .......
    .......

u+2534:
SF070000:
    .......
    .......
    .......
    .......
    .......
    .......
    ...@...
    ...@...
    ...@...
    ...@...
    ...@...
    @@@@@@@

u+2535:
uni2535:
    .......
    .......
    .......
    .......
    .......
    .......
    ...@...
    ...@...
    ...@...
    ...@...
    @@@@...
    @@@@@@@

u+2536:
uni2536:
    .......
    .......
    .......
    .......
    .......
    .......
    ...@...
    ...@...
    ...@...
    ...@...
    ...@@@@
    @@@@@@@

u+2537:
uni2537:
    .......
    .......
    .......
    .......
    .......
    .......
    ...@...
    ...@...
    ...@...
    ...@...
    @@@@@@@
    @@@@@@@

u+2538:
uni2538:
    .......
    .......
    .......
    .......
    .......
    .......
    ..@@...
    ..@@...
    ..@@...
    ..@@...
    ..@@...
    @@@@@@@

u+2539:
uni2539:
    .......
    .......
    .......
    .......
    .......
    .......
    ..@@...
    ..@@...
    ..@@...
    ..@@...
    @@@@...
    @@@@@@@

u+253a:
uni253A:
    .......
    .......
    .......
    .......
    .......
    .......
    ..@@...
    ..@@...
    ..@@...
    ..@@...
    ..@@@@@
    @@@@@@@

u+253b:
uni253B:
    .......
    .......
    .......
    .......
    .......
    .......
    ..@@...
    ..@@...
    ..@@...
    ..@@...
    @@@@@@@
    @@@@@@@

u+253c:
SF050000:
    ...@...
    ...@...
    ...@...
    ...@...
    ...@...
    @@@@@@@
    ...@...
    ...@...
    ...@...
    ...@...
    ...@...
    ...@...

u+253d:
uni253D:
    ...@...
    ...@...
    ...@...
    ...@...
    @@@@...
    @@@@@@@
    ...@...
    ...@...
    ...@...
    ...@...
    ...@...
    ...@...

u+253e:
uni253E:
    ...@...
    ...@...
    ...@...
    ...@...
    ...@@@@
    @@@@@@@
    ...@...
    ...@...
    ...@...
    ...@...
    ...@...
    ...@...

u+253f:
uni253F:
    ...@...
    ...@...
    ...@...
    ...@...
    @@@@@@@
    @@@@@@@
    ...@...
    ...@...
    ...@...
    ...@...
    ...@...
    ...@...

u+2540:
uni2540:
    ..@@...
    ..@@...
    ..@@...
    ..@@...
    ..@@...
    @@@@@@@
    ...@...
    ...@...
    ...@...
    ...@...
    ...@...
    ...@...

u+2541:
uni2541:
    ...@...
    ...@...
    ...@...
    ...@...
    ...@...
    @@@@@@@
    ..@@...
    ..@@...
    ..@@...
    ..@@...
    ..@@...
    ..@@...

u+2542:
uni2542:
    ..@@...
    ..@@...
    ..@@...
    ..@@...
    ..@@...
    @@@@@@@
    ..@@...
    ..@@...
    ..@@...
    ..@@...
    ..@@...
    ..@@...

u+2543:
uni2543:
    ..@@...
    ..@@...
    ..@@...
    ..@@...
    @@@@...
    @@@@@@@
    ...@...
    ...@...
    ...@...
    ...@...
    ...@...
    ...@...

u+2544:
uni2544:
    ..@@...
    ..@@...
    ..@@...
    ..@@...
    ..@@@@@
    @@@@@@@
    ...@...
    ...@...
    ...@...
    ...@...
    ...@...
    ...@...

u+2545:
uni2545:
    ...@...
    ...@...
    ...@...
    ...@...
    @@@@...
    @@@@@@@
    ..@@...
    ..@@...
    ..@@...
    ..@@...
    ..@@...
    ..@@...

u+2546:
uni2546:
    ...@...
    ...@...
    ...@...
    ...@...
    ..@@@@@
    @@@@@@@
    ..@@...
    ..@@...
    ..@@...
    ..@@...
    ..@@...
    ..@@...

u+2547:
uni2547:
    ..@@...
    ..@@...
    ..@@...
    ..@@...
    @@@@@@@
    @@@@@@@
    ...@...
    ...@...
    ...@...
    ...@...
    ...@...
    ...@...

u+2548:
uni2548:
    ...@...
    ...@...
    ...@...
    ...@...
    @@@@@@@
    @@@@@@@
    ..@@...
    ..@@...
    ..@@...
    ..@@...
    ..@@...
    ..@@...

u+2549:
uni2549:
    ..@@...
    ..@@...
    ..@@...
    ..@@...
    @@@@...
    @@@@@@@
    ..@@...
    ..@@...
    ..@@...
    ..@@...
    ..@@...
    ..@@...

u+254a:
uni254A:
    ..@@...
    ..@@...
    ..@@...
    ..@@...
    ..@@@@@
    @@@@@@@
    ..@@...
    ..@@...
    ..@@...
    ..@@...
    ..@@...
    ..@@...

u+254b:
uni254B:
    ..@@...
    ..@@...
    ..@@...
    ..@@...
    @@@@@@@
    @@@@@@@
    ..@@...
    ..@@...
    ..@@...
    ..@@...
    ..@@...
    ..@@...

u+254c:
uni254C:
    .......
    .......
    .......
    .......
    .......
    .......
    .@@.@@@
    .......
    .......
    .......
    .......
    .......

u+254d:
uni254D:
    .......
    .......
    .......
    .......
    .......
    .......
    .@@.@@@
    .@@.@@@
    .......
    .......
    .......
    .......

u+254e:
uni254E:
    ...@...
    ...@...
    ...@...
    ...@...
    ...@...
    .......
    ...@...
    ...@...
    ...@...
    ...@...
    ...@...
    ...@...

u+254f:
uni254F:
    ..@@...
    ..@@...
    ..@@...
    ..@@...
    ..@@...
    .......
    ..@@...
    ..@@...
    ..@@...
    ..@@...
    ..@@...
    ..@@...

u+2550:
SF430000:
    .......
    .......
    .......
    .......
    .......
    .@@@@@@
    .......
    .@@@@@@
    .......
    .......
    .......
    .......

u+2551:
SF240000:
    ..@.@..
    ..@.@..
    ..@.@..
    ..@.@..
    ..@.@..
    ..@.@..
    ..@.@..
    ..@.@..
    ..@.@..
    ..@.@..
    ..@.@..
    ..@.@..

u+2552:
SF510000:
    ...@@@@
    ...@...
    ...@@@@
    ...@...
    ...@...
    ...@...
    ...@...
    ...@...
    .......
    .......
    .......
    .......

u+2553:
SF520000:
    ..@@@@@
    ..@.@..
    ..@.@..
    ..@.@..
    ..@.@..
    ..@.@..
    ..@.@..
    .......
    .......
    .......
    .......
    .......

u+2554:
SF390000:
    ..@@@@@
    ..@....
    ..@.@@@
    ..@.@..
    ..@.@..
    ..@.@..
    ..@.@..
    ..@.@..
    .......
    .......
    .......
    .......

u+2555:
SF220000:
    @@@@...
    ...@...
    @@@@...
    ...@...
    ...@...
    ...@...
    ...@...
    ...@...
    .......
    .......
    .......
    .......

u+2556:
SF210000:
    @@@@@..
    ..@.@..
    ..@.@..
    ..@.@..
    ..@.@..
    ..@.@..
    ..@.@..
    .......
    .......
    .......
    .......
    .......

u+2557:
SF250000:
    @@@@@..
    ....@..
    @@@.@..
    ..@.@..
    ..@.@..
    ..@.@..
    ..@.@..
    ..@.@..
    .......
    .......
    .......
    .......

u+2558:
SF500000:
    .......
    .......
    .......
    .......
    .......
    ...@...
    ...@...
    ...@...
    ...@...
    ...@@@@
    ...@...
    ...@@@@

u+2559:
SF490000:
    .......
    .......
    .......
    .......
    .......
    .......
    ..@.@..
    ..@.@..
    ..@.@..
    ..@.@..
    ..@.@..
    ..@@@@@

u+255a:
SF380000:
    .......
    .......
    .......
    .......
    .......
    ..@.@..
    ..@.@..
    ..@.@..
    ..@.@..
    ..@.@@@
    ..@....
    ..@@@@@

u+255b:
SF280000:
    .......
    .......
    .......
    .......
    .......
    ...@...
    ...@...
    ...@...
    ...@...
    @@@@...
    ...@...
    @@@@...

u+255c:
SF270000:
    .......
    .......
    .......
    .......
    .......
    .......
    ..@.@..
    ..@.@..
    ..@.@..
    ..@.@..
    ..@.@..
    @@@@@..

u+255d:
SF260000:
    .......
    .......
    .......
    .......
    .......
    ..@.@..
    ..@.@..
    ..@.@..
    ..@.@..
    @@@.@..
    ....@..
    @@@@@..

u+255e:
SF360000:
    ...@...
    ...@...
    ...@...
    ...@...
    ...@@@@
    ...@...
    ...@@@@
    ...@...
    ...@...
    ...@...
    ...@...
    ...@...

u+255f:
SF370000:
    ..@.@..
    ..@.@..
    ..@.@..
    ..@.@..
    ..@.@..
    ..@.@@@
    ..@.@..
    ..@.@..
    ..@.@..
    ..@.@..
    ..@.@..
    ..@.@..

u+2560:
SF420000:
    ..@.@..
    ..@.@..
    ..@.@..
    ..@.@..
    ..@.@@@
    ..@....
    ..@.@@@
    ..@.@..
    ..@.@..
    ..@.@..
    ..@.@..
    ..@.@..

u+2561:
SF190000:
    ...@...
    ...@...
    ...@...
    ...@...
    @@@@...
    ...@...
    @@@@...
    ...@...
    ...@...
    ...@...
    ...@...
    ...@...

u+2562:
SF200000:
    ..@.@..
    ..@.@..
    ..@.@..
    ..@.@..
    ..@.@..
    @@@.@..
    ..@.@..
    ..@.@..
    ..@.@..
    ..@.@..
    ..@.@..
    ..@.@..

u+2563:
SF230000:
    ..@.@..
    ..@.@..
    ..@.@..
    ..@.@..
    @@@.@..
    ....@..
    @@@.@..
    ..@.@..
    ..@.@..
    ..@.@..
    ..@.@..
    ..@.@..

u+2564:
SF470000:
    @@@@@@@
    .......
    @@@@@@@
    ...@...
    ...@...
    ...@...
    ...@...
    ...@...
    .......
    .......
    .......
    .......

u+2565:
SF480000:
    @@@@@@@
    ..@.@..
    ..@.@..
    ..@.@..
    ..@.@..
    ..@.@..
    ..@.@..
    .......
    .......
    .......
    .......
    .......

u+2566:
SF410000:
    @@@@@@@
    .......
    @@@.@@@
    ..@.@..
    ..@.@..
    ..@.@..
    ..@.@..
    ..@.@..
    .......
    .......
    .......
    .......

u+2567:
SF450000:
    .......
    .......
    .......
    .......
    .......
    ...@...
    ...@...
    ...@...
    ...@...
    @@@@@@@
    .......
    @@@@@@@

u+2568:
SF460000:
    .......
    .......
    .......
    .......
    .......
    .......
    ..@.@..
    ..@.@..
    ..@.@..
    ..@.@..
    ..@.@..
    @@@@@@@

u+2569:
SF400000:
    .......
    .......
    .......
    .......
    .......
    ..@.@..
    ..@.@..
    ..@.@..
    ..@.@..
    @@@.@@@
    .......
    @@@@@@@

u+256a:
SF540000:
    ...@...
    ...@...
    ...@...
    ...@...
    @@@@@@@
    .......
    @@@@@@@
    ...@...
    ...@...
    ...@...
    ...@...
    ...@...

u+256b:
SF530000:
    ..@.@..
    ..@.@..
    ..@.@..
    ..@.@..
    ..@.@..
    @@@.@@@
    ..@.@..
    ..@.@..
    ..@.@..
    ..@.@..
    ..@.@..
    ..@.@..

u+256c:
SF440000:
    ..@.@..
    ..@.@..
    ..@.@..
    ..@.@..
    @@@.@@@
    .......
    @@@.@@@
    ..@.@..
    ..@.@..
    ..@.@..
    ..@.@..
    ..@.@..

u+256d:
uni256D:
    ....@@@
    ...@@..
    ...@...
    ...@...
    ...@...
    ...@...
    ...@...
    .......
    .......
    .......
    .......
    .......

u+256e:
uni256E:
    @@@....
    ..@@...
    ...@...
    ...@...
    ...@...
    ...@...
    ...@...
    .......
    .......
    .......
    .......
    .......

u+256f:
uni256F:
    .......
    .......
    .......
    .......
    .......
    .......
    ...@...
    ...@...
    ...@...
    ...@...
    ..@@...
    @@@....

u+2570:
uni2570:
    .......
    .......
    .......
    .......
    .......
    .......
    ...@...
    ...@...
    ...@...
    ...@...
    ...@@..
    ....@@@

u+2571:
uni2571:
    .......
    .......
    .......
    ......@
    .....@.
    ....@..
    ...@...
    ..@....
    .@.....
    @......
    .......
    .......

u+2572:
uni2572:
    .......
    .......
    .......
    ......@
    .....@.
    ....@..
    ...@...
    ..@....
    .@.....
    @......
    .......
    .......

u+2573:
uni2573:
    .......
    .......
    .......
    @.....@
    .@...@.
    ..@.@..
    ...@...
    ..@.@..
    .@...@.
    @.....@
    .......
    .......

u+2574:
uni2574:
    .......
    .......
    .......
    .......
    .......
    .......
    .@@@...
    .......
    .......
    .......
    .......
    .......

u+2575:
uni2575:
    .......
    .......
    .......
    .......
    .......
    .......
    ...@...
    ...@...
    ...@...
    ...@...
    ...@...
    ...@...

u+2576:
uni2576:
    .......
    .......
    .......
    .......
    .......
    .......
    ...@@@@
    .......
    .......
    .......
    .......
    .......

u+2577:
uni2577:
    ...@...
    ...@...
    ...@...
    ...@...
    ...@...
    ...@...
    ...@...
    .......
    .......
    .......
    .......
    .......

u+2578:
uni2578:
    .......
    .......
    .......
    .......
    .......
    .......
    .@@@...
    .@@@...
    .......
    .......
    .......
    .......

u+2579:
uni2579:
    .......
    .......
    .......
    .......
    .......
    .......
    ..@@...
    ..@@...
    ..@@...
    ..@@...
    ..@@...
    ..@@...

u+257a:
uni257A:
    .......
    .......
    .......
    .......
    .......
    .......
    ...@@@@
    ...@@@@
    .......
    .......
    .......
    .......

u+257b:
uni257B:
    ..@@...
    ..@@...
    ..@@...
    ..@@...
    ..@@...
    ..@@...
    ..@@...
    .......
    .......
    .......
    .......
    .......

u+257c:
uni257C:
    .......
    .......
    .......
    .......
    .......
    .......
    ....@@@
    .@@@@@@
    .......
    .......
    .......
    .......

u+257d:
uni257D:
    ...@...
    ...@...
    ...@...
    ...@...
    ...@...
    ...@...
    ..@@...
    ..@@...
    ..@@...
    ..@@...
    ..@@...
    ..@@...

u+257e:
uni257E:
    .......
    .......
    .......
    .......
    .......
    .......
    .@@@...
    .@@@@@@
    .......
    .......
    .......
    .......

u+257f:
uni257F:
    ..@@...
    ..@@...
    ..@@...
    ..@@...
    ..@@...
    ..@@...
    ...@...
    ...@...
    ...@...
    ...@...
    ...@...
    ...@...

u+2581:
uni2581:
    .......
    .......
    .......
    .@@@@..
    .......
    .......
    .......
    .......
    .......
    .......
    .......
    .......

u+2582:
uni2582:
    .......
    .......
    .......
    .@@@@..
    .@@@@..
    .......
    .......
    .......
    .......
    .......
    .......
    .......

u+2583:
uni2583:
    .......
    .......
    .......
    .@@@@..
    .@@@@..
    .@@@@..
    .......
    .......
    .......
    .......
    .......
    .......

u+2584:
dnblock:
    .......
    .......
    .......
    .@@@@..
    .@@@@..
    .@@@@..
    .@@@@..
    .......
    .......
    .......
    .......
    .......

u+2585:
uni2585:
    .......
    .......
    .......
    .@@@@..
    .@@@@..
    .@@@@..
    .@@@@..
    .@@@@..
    .......
    .......
    .......
    .......

u+2586:
uni2586:
    .......
    .......
    .......
    .@@@@..
    .@@@@..
    .@@@@..
    .@@@@..
    .@@@@..
    .@@@@..
    .......
    .......
    .......

u+2587:
uni2587:
    .......
    .......
    .......
    .@@@@..
    .@@@@..
    .@@@@..
    .@@@@..
    .@@@@..
    .@@@@..
    .@@@@..
    .......
    .......

u+2588:
block:
    .......
    .......
    .......
    .@@@@..
    .@@@@..
    .@@@@..
    .@@@@..
    .@@@@..
    .@@@@..
    .@@@@..
    .@@@@..
    .......

u+2589:
uni2589:
    .......
    .......
    .......
    .@@@@..
    .@@@@..
    .@@@@..
    .@@@@..
    .@@@@..
    .@@@@..
    .@@@@..
    .@@@@..
    .......

u+258a:
uni258A:
    .......
    .......
    .......
    .@@@...
    .@@@...
    .@@@...
    .@@@...
    .@@@...
    .@@@...
    .@@@...
    .@@@...
    .......

u+258b:
uni258B:
    .......
    .......
    .......
    .@@@...
    .@@@...
    .@@@...
    .@@@...
    .@@@...
    .@@@...
    .@@@...
    .@@@...
    .......

u+258c:
lfblock:
    .......
    .......
    .......
    .@@....
    .@@....
    .@@....
    .@@....
    .@@....
    .@@....
    .@@....
    .@@....
    .......

u+258d:
uni258D:
    .......
    .......
    .......
    .@@....
    .@@....
    .@@....
    .@@....
    .@@....
    .@@....
    .@@....
    .@@....
    .......

u+258e:
uni258E:
    .......
    .......
    .......
    .@.....
    .@.....
    .@.....
    .@.....
    .@.....
    .@.....
    .@.....
    .@.....
    .......

u+258f:
uni258F:
    .......
    .......
    .......
    .@.....
    .@.....
    .@.....
    .@.....
    .@.....
    .@.....
    .@.....
    .@.....
    .......

u+2590:
rtblock:
    .......
    .......
    .......
    ...@@..
    ...@@..
    ...@@..
    ...@@..
    ...@@..
    ...@@..
    ...@@..
    ...@@..
    .......

u+2591:
shadelight:
    .......
    ..@..@.
    .......
    .......
    .@..@..
    .......
    .......
    ..@..@.
    .......
    .......
    .@..@..
    .......

u+2592:
shademedium:
    .......
    ..@.@.@
    .......
    .@.@.@.
    .......
    ..@.@.@
    .......
    .@.@.@.
    .......
    ..@.@.@
    .......
    .@.@.@.

u+2593:
shadedark:
    .......
    .@.@.@.
    ..@.@.@
    .@.@.@.
    ..@.@.@
    .@.@.@.
    ..@.@.@
    .@.@.@.
    ..@.@.@
    .@.@.@.
    ..@.@.@
    .@.@.@.

u+2594:
uni2594:
    .......
    .......
    .......
    .......
    .......
    .......
    .......
    .......
    .......
    .......
    .@@@@..
    .......

u+2595:
uni2595:
    .......
    .......
    .......
    ....@..
    ....@..
    ....@..
    ....@..
    ....@..
    ....@..
    ....@..
    ....@..
    .......

u+2596:
uni2596:
    .......
    .......
    .......
    .@@....
    .@@....
    .@@....
    .@@....
    .......
    .......
    .......
    .......
    .......

u+2597:
uni2597:
    .......
    .......
    .......
    ...@@..
    ...@@..
    ...@@..
    ...@@..
    .......
    .......
    .......
    .......
    .......

u+2598:
uni2598:
    .......
    .......
    .......
    .......
    .......
    .......
    .......
    .@@....
    .@@....
    .@@....
    .@@....
    .......

u+2599:
uni2599:
    .......
    .......
    .......
    .@@....
    .@@....
    .@@....
    .@@....
    .@@@@..
    .@@@@..
    .@@@@..
    .@@@@..
    .......

u+259a:
uni259A:
    .......
    .......
    .......
    .@@....
    .@@....
    .@@....
    .@@....
    ...@@..
    ...@@..
    ...@@..
    ...@@..
    .......

u+259b:
uni259B:
    .......
    .......
    .......
    .@@@@..
    .@@@@..
    .@@@@..
    .@@@@..
    .@@@@..
    .@@....
    .@@....
    .@@....
    .......

u+259c:
uni259C:
    .......
    .......
    .......
    .@@@@..
    .@@@@..
    .@@@@..
    .@@@@..
    ...@@..
    ...@@..
    ...@@..
    ...@@..
    .......

u+259d:
uni259D:
    .......
    .......
    .......
    .......
    .......
    .......
    .......
    ...@@..
    ...@@..
    ...@@..
    ...@@..
    .......

u+259e:
uni259E:
    .......
    .......
    .......
    ...@@..
    ...@@..
    ...@@..
    ...@@..
    .@@....
    .@@....
    .@@....
    .@@....
    .......

u+259f:
uni259F:
    .......
    .......
    .......
    ...@@..
    ...@@..
    ...@@..
    ...@@..
    .@@@@..
    .@@@@..
    .@@@@..
    .@@@@..
    .......

u+25a0:
filledbox:
    .......
    .......
    .......
    .......
    .@@@@..
    .@@@@..
    .@@@@..
    .@@@@..
    .......
    .......
    .......
    .......

u+25a1:
whitesquare:
    .......
    .......
    .......
    .......
    .@@@@..
    .@..@..
    .@..@..
    .@@@@..
    .......
    .......
    .......
    .......

u+25a2:
uni25A2:
    .......
    .......
    .......
    .......
    ..@@...
    .@..@..
    .@..@..
    ..@@...
    .......
    .......
    .......
    .......

u+25aa:
H18543:
    .......
    .......
    .......
    .......
    .......
    ..@@...
    ..@@...
    .......
    .......
    .......
    .......
    .......

u+25b2:
triagup:
    .......
    .......
    .......
    .......
    ...@...
    ..@.@..
    .@@@@@.
    .......
    .......
    .......
    .......
    .......

u+25b3:
whiteuppointingtriangle:
    .......
    .......
    .......
    .......
    ...@...
    ..@@@..
    .@@@@@.
    .......
    .......
    .......
    .......
    .......

u+25b4:
blackuppointingsmalltriangle:
    .......
    .......
    .......
    .......
    ...@...
    ..@@@..
    .......
    .......
    .......
    .......
    .......
    .......

u+2600:
uni2600:
    .......
    .......
    ...@...
    .@.@.@.
    ..@@@..
    @@@@@@@
    ..@@@..
    .@.@.@.
    ...@...
    .......
    .......
    .......

u+2601:
uni2601:
    .......
    .......
    .......
    .......
    .......
    ....@..
    ..@@@@.
    .@@@@@@
    .......
    .......
    .......
    .......

u+2602:
uni2602:
    .......
    .......
    ..@@@..
    .@@@@@.
    .@@@@@.
    ...@...
    ...@...
    .@.@...
    .@.@...
    ..@....
    .......
    .......

u+2661:
heartsuitwhite:
    .......
    .......
    .......
    ..@.@..
    .@.@.@.
    .@...@.
    ..@.@..
    ...@...
    .......
    .......
    .......
    .......

u+2665:
heartsuitblack:
    .......
    .......
    .......
    ..@.@..
    .@@@@@.
    .@@@@@.
    ..@@@..
    ...@...
    .......
    .......
    .......
    .......

u+2713:
checkmark:
    .......
    .......
    .......
    ....@..
    ....@..
    ...@...
    @..@...
    .@@....
    ..@....
    .......
    .......
    .......

u+2714:
uni2714:
    .......
    .......
    .......
    ....@..
    ...@@..
    @..@...
    @@@@...
    .@@....
    ..@....
    .......
    .......
    .......

u+272e:
uni272E:
    .......
    .......
    .......
    ...@...
    ...@...
    @@@@@@@
    ..@@@..
    ..@@@..
    .@...@.
    .......
    .......
    .......

u+2744:
uni2744:
    .......
    .......
    .......
    @..@..@
    .@@.@@.
    .@.@.@.
    @.@@@.@
    .@.@.@.
    .@@.@@.
    @..@..@
    .......
    .......

u+27c2:
uni27C2:
    .......
    .......
    .......
    ..@....
    ..@....
    ..@....
    ..@....
    .@@@...
    .......
    .......
    .......
    .......

u+27c3:
uni27C3:
    .......
    .......
    .......
    ..@@@..
    .@.....
    .@.@...
    .@.....
    ..@@@..
    .......
    .......
    .......
    .......

u+27c4:
uni27C4:
    .......
    .......
    .......
    .@@@...
    ....@..
    ..@.@..
    ....@..
    .@@@...
    .......
    .......
    .......
    .......

u+27d6:
uni27D6:
    .......
    .......
    .......
    ...@...
    ...@...
    ...@...
    ...@...
    ...@...
    .@@@@@.
    .......
    .......
    .......

u+27d7:
uni27D7:
    .......
    .......
    .......
    .@@@@@.
    ...@...
    ...@...
    ...@...
    ...@...
    ...@...
    .......
    .......
    .......

u+27dc:
uni27DC:
    .......
    .......
    .......
    .......
    ..@....
    .@.@@@@
    ..@....
    .......
    .......
    .......
    .......
    .......

u+27dd:
uni27DD:
    .......
    .......
    .......
    .......
    .@.....
    .@@@@@@
    .@.....
    .......
    .......
    .......
    .......
    .......

u+27de:
uni27DE:
    .......
    .......
    .......
    .......
    ....@..
    @@@@@..
    ....@..
    .......
    .......
    .......
    .......
    .......

u+2800:
uni2800:
    .......
    .......
    .......
    .......
    .......
    .......
    .......
    .......
    .......
    .......
    .......
    .......
    .......

u+2801:
uni2801:
    .......
    .......
    .......
    .......
    .......
    .......
    .......
    .@.....
    .......
    .......
    .......
    .......

u+2802:
uni2802:
    .......
    .......
    .......
    .......
    .......
    .@.....
    .......
    .......
    .......
    .......
    .......
    .......

u+2803:
uni2803:
    .......
    .......
    .......
    .......
    .......
    .@.....
    .......
    .@.....
    .......
    .......
    .......
    .......

u+2804:
uni2804:
    .......
    .......
    .......
    .@.....
    .......
    .......
    .......
    .......
    .......
    .......
    .......
    .......

u+2805:
uni2805:
    .......
    .......
    .......
    .@.....
    .......
    .......
    .......
    .@.....
    .......
    .......
    .......
    .......

u+2806:
uni2806:
    .......
    .......
    .......
    .@.....
    .......
    .@.....
    .......
    .......
    .......
    .......
    .......
    .......

u+2807:
uni2807:
    .......
    .......
    .......
    .@.....
    .......
    .@.....
    .......
    .@.....
    .......
    .......
    .......
    .......

u+2808:
uni2808:
    .......
    .......
    .......
    .......
    .......
    .......
    .......
    ...@...
    .......
    .......
    .......
    .......

u+2809:
uni2809:
    .......
    .......
    .......
    .......
    .......
    .......
    .......
    .@.@...
    .......
    .......
    .......
    .......

u+280a:
uni280A:
    .......
    .......
    .......
    .......
    .......
    ...@...
    .......
    .@.....
    .......
    .......
    .......
    .......

u+280b:
uni280B:
    .......
    .......
    .......
    .......
    .......
    .@.@...
    .......
    .@.....
    .......
    .......
    .......
    .......

u+280c:
uni280C:
    .......
    .......
    .......
    ...@...
    .......
    .......
    .......
    .@.....
    .......
    .......
    .......
    .......

u+280d:
uni280D:
    .......
    .......
    .......
    .@.@...
    .......
    .......
    .......
    .@.....
    .......
    .......
    .......
    .......

u+280e:
uni280E:
    .......
    .......
    .......
    ...@...
    .......
    .@.....
    .......
    .@.....
    .......
    .......
    .......
    .......

u+280f:
uni280F:
    .......
    .......
    .......
    .@.@...
    .......
    .@.....
    .......
    .@.....
    .......
    .......
    .......
    .......

u+2810:
uni2810:
    .......
    .......
    .......
    .......
    .......
    ...@...
    .......
    .......
    .......
    .......
    .......
    .......

u+2811:
uni2811:
    .......
    .......
    .......
    .......
    .......
    .@.....
    .......
    ...@...
    .......
    .......
    .......
    .......

u+2812:
uni2812:
    .......
    .......
    .......
    .......
    .......
    .@.@...
    .......
    .......
    .......
    .......
    .......
    .......

u+2813:
uni2813:
    .......
    .......
    .......
    .......
    .......
    .@.....
    .......
    .@.@...
    .......
    .......
    .......
    .......

u+2814:
uni2814:
    .......
    .......
    .......
    ...@...
    .......
    .@.....
    .......
    .......
    .......
    .......
    .......
    .......

u+2815:
uni2815:
    .......
    .......
    .......
    .@.....
    .......
    ...@...
    .......
    .@.....
    .......
    .......
    .......
    .......

u+2816:
uni2816:
    .......
    .......
    .......
    .@.@...
    .......
    .@.....
    .......
    .......
    .......
    .......
    .......
    .......

u+2817:
uni2817:
    .......
    .......
    .......
    .@.....
    .......
    .@.@...
    .......
    .@.....
    .......
    .......
    .......
    .......

u+2818:
uni2818:
    .......
    .......
    .......
    .......
    .......
    ...@...
    .......
    ...@...
    .......
    .......
    .......
    .......

u+2819:
uni2819:
    .......
    .......
    .......
    .......
    .......
    .@.@...
    .......
    ...@...
    .......
    .......
    .......
    .......

u+281a:
uni281A:
    .......
    .......
    .......
    .......
    .......
    ...@...
    .......
    .@.@...
    .......
    .......
    .......
    .......

u+281b:
uni281B:
    .......
    .......
    .......
    .......
    .......
    .@.@...
    .......
    .@.@...
    .......
    .......
    .......
    .......

u+281c:
uni281C:
    .......
    .......
    .......
    ...@...
    .......
    ...@...
    .......
    .@.....
    .......
    .......
    .......
    .......

u+281d:
uni281D:
    .......
    .......
    .......
    .@.@...
    .......
    ...@...
    .......
    .@.....
    .......
    .......
    .......
    .......

u+281e:
uni281E:
    .......
    .......
    .......
    ...@...
    .......
    .@.@...
    .......
    .@.....
    .......
    .......
    .......
    .......

u+281f:
uni281F:
    .......
    .......
    .......
    .@.@...
    .......
    .@.@...
    .......
    .@.....
    .......
    .......
    .......
    .......

u+2820:
uni2820:
    .......
    .......
    .......
    ...@...
    .......
    .......
    .......
    .......
    .......
    .......
    .......
    .......

u+2821:
uni2821:
    .......
    .......
    .......
    .@.....
    .......
    .......
    .......
    ...@...
    .......
    .......
    .......
    .......

u+2822:
uni2822:
    .......
    .......
    .......
    .@.....
    .......
    ...@...
    .......
    .......
    .......
    .......
    .......
    .......

u+2823:
uni2823:
    .......
    .......
    .......
    .@.....
    .......
    .@.....
    .......
    ...@...
    .......
    .......
    .......
    .......

u+2824:
uni2824:
    .......
    .......
    .......
    .@.@...
    .......
    .......
    .......
    .......
    .......
    .......
    .......
    .......

u+2825:
uni2825:
    .......
    .......
    .......
    .@.....
    .......
    .......
    .......
    .@.@...
    .......
    .......
    .......
    .......

u+2826:
uni2826:
    .......
    .......
    .......
    .@.....
    .......
    .@.@...
    .......
    .......
    .......
    .......
    .......
    .......

u+2827:
uni2827:
    .......
    .......
    .......
    .@.....
    .......
    .@.....
    .......
    .@.@...
    .......
    .......
    .......
    .......

u+2828:
uni2828:
    .......
    .......
    .......
    ...@...
    .......
    .......
    .......
    ...@...
    .......
    .......
    .......
    .......

u+2829:
uni2829:
    .......
    .......
    .......
    .@.@...
    .......
    .......
    .......
    ...@...
    .......
    .......
    .......
    .......

u+282a:
uni282A:
    .......
    .......
    .......
    ...@...
    .......
    .@.....
    .......
    ...@...
    .......
    .......
    .......
    .......

u+282b:
uni282B:
    .......
    .......
    .......
    .@.@...
    .......
    .@.....
    .......
    ...@...
    .......
    .......
    .......
    .......

u+282c:
uni282C:
    .......
    .......
    .......
    ...@...
    .......
    .......
    .......
    .@.@...
    .......
    .......
    .......
    .......

u+282d:
uni282D:
    .......
    .......
    .......
    .@.@...
    .......
    .......
    .......
    .@.@...
    .......
    .......
    .......
    .......

u+282e:
uni282E:
    .......
    .......
    .......
    ...@...
    .......
    .@.....
    .......
    .@.@...
    .......
    .......
    .......
    .......

u+282f:
uni282F:
    .......
    .......
    .......
    .@.@...
    .......
    .@.....
    .......
    .@.@...
    .......
    .......
    .......
    .......

u+2830:
uni2830:
    .......
    .......
    .......
    ...@...
    .......
    ...@...
    .......
    .......
    .......
    .......
    .......
    .......

u+2831:
uni2831:
    .......
    .......
    .......
    .@.....
    .......
    ...@...
    .......
    ...@...
    .......
    .......
    .......
    .......

u+2832:
uni2832:
    .......
    .......
    .......
    .@.@...
    .......
    ...@...
    .......
    .......
    .......
    .......
    .......
    .......

u+2833:
uni2833:
    .......
    .......
    .......
    .@.....
    .......
    .@.@...
    .......
    ...@...
    .......
    .......
    .......
    .......

u+2834:
uni2834:
    .......
    .......
    .......
    ...@...
    .......
    .@.@...
    .......
    .......
    .......
    .......
    .......
    .......

u+2835:
uni2835:
    .......
    .......
    .......
    .@.....
    .......
    ...@...
    .......
    .@.@...
    .......
    .......
    .......
    .......

u+2836:
uni2836:
    .......
    .......
    .......
    .@.@...
    .......
    .@.@...
    .......
    .......
    .......
    .......
    .......
    .......

u+2837:
uni2837:
    .......
    .......
    .......
    .@.....
    .......
    .@.@...
    .......
    .@.@...
    .......
    .......
    .......
    .......

u+2838:
uni2838:
    .......
    .......
    .......
    ...@...
    .......
    ...@...
    .......
    ...@...
    .......
    .......
    .......
    .......

u+2839:
uni2839:
    .......
    .......
    .......
    .@.@...
    .......
    ...@...
    .......
    ...@...
    .......
    .......
    .......
    .......

u+283a:
uni283A:
    .......
    .......
    .......
    ...@...
    .......
    .@.@...
    .......
    ...@...
    .......
    .......
    .......
    .......

u+283b:
uni283B:
    .......
    .......
    .......
    .@.@...
    .......
    .@.@...
    .......
    ...@...
    .......
    .......
    .......
    .......

u+283c:
uni283C:
    .......
    .......
    .......
    ...@...
    .......
    ...@...
    .......
    .@.@...
    .......
    .......
    .......
    .......

u+283d:
uni283D:
    .......
    .......
    .......
    .@.@...
    .......
    ...@...
    .......
    .@.@...
    .......
    .......
    .......
    .......

u+283e:
uni283E:
    .......
    .......
    .......
    ...@...
    .......
    .@.@...
    .......
    .@.@...
    .......
    .......
    .......
    .......

u+283f:
uni283F:
    .......
    .......
    .......
    .@.@...
    .......
    .@.@...
    .......
    .@.@...
    .......
    .......
    .......
    .......

u+2840:
uni2840:
    .......
    .@.....
    .......
    .......
    .......
    .......
    .......
    .......
    .......
    .......
    .......
    .......

u+2841:
uni2841:
    .......
    .@.....
    .......
    .......
    .......
    .......
    .......
    .@.....
    .......
    .......
    .......
    .......

u+2842:
uni2842:
    .......
    .@.....
    .......
    .......
    .......
    .@.....
    .......
    .......
    .......
    .......
    .......
    .......

u+2843:
uni2843:
    .......
    .@.....
    .......
    .@.....
    .......
    .......
    .......
    .@.....
    .......
    .......
    .......
    .......

u+2844:
uni2844:
    .......
    .@.....
    .......
    .@.....
    .......
    .......
    .......
    .......
    .......
    .......
    .......
    .......

u+2845:
uni2845:
    .......
    .@.....
    .......
    .......
    .......
    .@.....
    .......
    .@.....
    .......
    .......
    .......
    .......

u+2846:
uni2846:
    .......
    .@.....
    .......
    .@.....
    .......
    .@.....
    .......
    .......
    .......
    .......
    .......
    .......

u+2847:
uni2847:
    .......
    .@.....
    .......
    .@.....
    .......
    .@.....
    .......
    .@.....
    .......
    .......
    .......
    .......

u+2848:
uni2848:
    .......
    ...@...
    .......
    .......
    .......
    .......
    .......
    .@.....
    .......
    .......
    .......
    .......

u+2849:
uni2849:
    .......
    .@.@...
    .......
    .......
    .......
    .......
    .......
    .@.....
    .......
    .......
    .......
    .......

u+284a:
uni284A:
    .......
    ...@...
    .......
    .@.....
    .......
    .......
    .......
    .@.....
    .......
    .......
    .......
    .......

u+284b:
uni284B:
    .......
    .@.@...
    .......
    .@.....
    .......
    .......
    .......
    .@.....
    .......
    .......
    .......
    .......

u+284c:
uni284C:
    .......
    ...@...
    .......
    .......
    .......
    .@.....
    .......
    .@.....
    .......
    .......
    .......
    .......

u+284d:
uni284D:
    .......
    .@.@...
    .......
    .......
    .......
    .@.....
    .......
    .@.....
    .......
    .......
    .......
    .......

u+284e:
uni284E:
    .......
    ...@...
    .......
    .@.....
    .......
    .@.....
    .......
    .@.....
    .......
    .......
    .......
    .......

u+284f:
uni284F:
    .......
    .@.@...
    .......
    .@.....
    .......
    .@.....
    .......
    .@.....
    .......
    .......
    .......
    .......

u+2850:
uni2850:
    .......
    ...@...
    .......
    .......
    .......
    .@.....
    .......
    .......
    .......
    .......
    .......
    .......

u+2851:
uni2851:
    .......
    .@.....
    .......
    ...@...
    .......
    .......
    .......
    .@.....
    .......
    .......
    .......
    .......

u+2852:
uni2852:
    .......
    .@.@...
    .......
    .......
    .......
    .@.....
    .......
    .......
    .......
    .......
    .......
    .......

u+2853:
uni2853:
    .......
    .@.....
    .......
    .@.@...
    .......
    .......
    .......
    .@.....
    .......
    .......
    .......
    .......

u+2854:
uni2854:
    .......
    ...@...
    .......
    .@.....
    .......
    .@.....
    .......
    .......
    .......
    .......
    .......
    .......

u+2855:
uni2855:
    .......
    .@.....
    .......
    ...@...
    .......
    .@.....
    .......
    .@.....
    .......
    .......
    .......
    .......

u+2856:
uni2856:
    .......
    .@.@...
    .......
    .@.....
    .......
    .@.....
    .......
    .......
    .......
    .......
    .......
    .......

u+2857:
uni2857:
    .......
    .@.....
    .......
    .@.@...
    .......
    .@.....
    .......
    .@.....
    .......
    .......
    .......
    .......

u+2858:
uni2858:
    .......
    ...@...
    .......
    ...@...
    .......
    .......
    .......
    .@.....
    .......
    .......
    .......
    .......

u+2859:
uni2859:
    .......
    .@.@...
    .......
    ...@...
    .......
    .......
    .......
    .@.....
    .......
    .......
    .......
    .......

u+285a:
uni285A:
    .......
    ...@...
    .......
    .@.@...
    .......
    .......
    .......
    .@.....
    .......
    .......
    .......
    .......

u+285b:
uni285B:
    .......
    .@.@...
    .......
    .@.@...
    .......
    .......
    .......
    .@.....
    .......
    .......
    .......
    .......

u+285c:
uni285C:
    .......
    ...@...
    .......
    ...@...
    .......
    .@.....
    .......
    .@.....
    .......
    .......
    .......
    .......

u+285d:
uni285D:
    .......
    .@.@...
    .......
    ...@...
    .......
    .@.....
    .......
    .@.....
    .......
    .......
    .......
    .......

u+285e:
uni285E:
    .......
    ...@...
    .......
    .@.@...
    .......
    .@.....
    .......
    .@.....
    .......
    .......
    .......
    .......

u+285f:
uni285F:
    .......
    .@.@...
    .......
    .@.@...
    .......
    .@.....
    .......
    .@.....
    .......
    .......
    .......
    .......

u+2860:
uni2860:
    .......
    ...@...
    .......
    .@.....
    .......
    .......
    .......
    .......
    .......
    .......
    .......
    .......

u+2861:
uni2861:
    .......
    .@.....
    .......
    .......
    .......
    ...@...
    .......
    .@.....
    .......
    .......
    .......
    .......

u+2862:
uni2862:
    .......
    .@.....
    .......
    ...@...
    .......
    .@.....
    .......
    .......
    .......
    .......
    .......
    .......

u+2863:
uni2863:
    .......
    .@.....
    .......
    .@.....
    .......
    ...@...
    .......
    .@.....
    .......
    .......
    .......
    .......

u+2864:
uni2864:
    .......
    .@.@...
    .......
    .@.....
    .......
    .......
    .......
    .......
    .......
    .......
    .......
    .......

u+2865:
uni2865:
    .......
    .@.....
    .......
    .......
    .......
    .@.@...
    .......
    .@.....
    .......
    .......
    .......
    .......

u+2866:
uni2866:
    .......
    .@.....
    .......
    .@.@...
    .......
    .@.....
    .......
    .......
    .......
    .......
    .......
    .......

u+2867:
uni2867:
    .......
    .@.....
    .......
    .@.....
    .......
    .@.@...
    .......
    .@.....
    .......
    .......
    .......
    .......

u+2868:
uni2868:
    .......
    ...@...
    .......
    .......
    .......
    ...@...
    .......
    .@.....
    .......
    .......
    .......
    .......

u+2869:
uni2869:
    .......
    .@.@...
    .......
    .......
    .......
    ...@...
    .......
    .@.....
    .......
    .......
    .......
    .......

u+286a:
uni286A:
    .......
    ...@...
    .......
    .@.....
    .......
    ...@...
    .......
    .@.....
    .......
    .......
    .......
    .......

u+286b:
uni286B:
    .......
    .@.@...
    .......
    .@.....
    .......
    ...@...
    .......
    .@.....
    .......
    .......
    .......
    .......

u+286c:
uni286C:
    .......
    ...@...
    .......
    .......
    .......
    .@.@...
    .......
    .@.....
    .......
    .......
    .......
    .......

u+286d:
uni286D:
    .......
    .@.@...
    .......
    .......
    .......
    .@.@...
    .......
    .@.....
    .......
    .......
    .......
    .......

u+286e:
uni286E:
    .......
    ...@...
    .......
    .@.....
    .......
    .@.@...
    .......
    .@.....
    .......
    .......
    .......
    .......

u+286f:
uni286F:
    .......
    .@.@...
    .......
    .@.....
    .......
    .@.@...
    .......
    .@.....
    .......
    .......
    .......
    .......

u+2870:
uni2870:
    .......
    ...@...
    .......
    ...@...
    .......
    .@.....
    .......
    .......
    .......
    .......
    .......
    .......

u+2871:
uni2871:
    .......
    .@.....
    .......
    ...@...
    .......
    ...@...
    .......
    .@.....
    .......
    .......
    .......
    .......

u+2872:
uni2872:
    .......
    .@.@...
    .......
    ...@...
    .......
    .@.....
    .......
    .......
    .......
    .......
    .......
    .......

u+2873:
uni2873:
    .......
    .@.....
    .......
    .@.@...
    .......
    ...@...
    .......
    .@.....
    .......
    .......
    .......
    .......

u+2874:
uni2874:
    .......
    ...@...
    .......
    .@.@...
    .......
    .@.....
    .......
    .......
    .......
    .......
    .......
    .......

u+2875:
uni2875:
    .......
    .@.....
    .......
    ...@...
    .......
    .@.@...
    .......
    .@.....
    .......
    .......
    .......
    .......

u+2876:
uni2876:
    .......
    .@.@...
    .......
    .@.@...
    .......
    .@.....
    .......
    .......
    .......
    .......
    .......
    .......

u+2877:
uni2877:
    .......
    .@.....
    .......
    .@.@...
    .......
    .@.@...
    .......
    .@.....
    .......
    .......
    .......
    .......

u+2878:
uni2878:
    .......
    ...@...
    .......
    ...@...
    .......
    ...@...
    .......
    .@.....
    .......
    .......
    .......
    .......

u+2879:
uni2879:
    .......
    .@.@...
    .......
    ...@...
    .......
    ...@...
    .......
    .@.....
    .......
    .......
    .......
    .......

u+287a:
uni287A:
    .......
    ...@...
    .......
    .@.@...
    .......
    ...@...
    .......
    .@.....
    .......
    .......
    .......
    .......

u+287b:
uni287B:
    .......
    .@.@...
    .......
    .@.@...
    .......
    ...@...
    .......
    .@.....
    .......
    .......
    .......
    .......

u+287c:
uni287C:
    .......
    ...@...
    .......
    ...@...
    .......
    .@.@...
    .......
    .@.....
    .......
    .......
    .......
    .......

u+287d:
uni287D:
    .......
    .@.@...
    .......
    ...@...
    .......
    .@.@...
    .......
    .@.....
    .......
    .......
    .......
    .......

u+287e:
uni287E:
    .......
    ...@...
    .......
    .@.@...
    .......
    .@.@...
    .......
    .@.....
    .......
    .......
    .......
    .......

u+287f:
uni287F:
    .......
    .@.@...
    .......
    .@.@...
    .......
    .@.@...
    .......
    .@.....
    .......
    .......
    .......
    .......

u+2880:
uni2880:
    .......
    ...@...
    .......
    .......
    .......
    .......
    .......
    .......
    .......
    .......
    .......
    .......

u+2881:
uni2881:
    .......
    .@.....
    .......
    .......
    .......
    .......
    .......
    ...@...
    .......
    .......
    .......
    .......

u+2882:
uni2882:
    .......
    .@.....
    .......
    .......
    .......
    ...@...
    .......
    .......
    .......
    .......
    .......
    .......

u+2883:
uni2883:
    .......
    .@.....
    .......
    .@.....
    .......
    .......
    .......
    ...@...
    .......
    .......
    .......
    .......

u+2884:
uni2884:
    .......
    .@.....
    .......
    ...@...
    .......
    .......
    .......
    .......
    .......
    .......
    .......
    .......

u+2885:
uni2885:
    .......
    .@.....
    .......
    .......
    .......
    .@.....
    .......
    ...@...
    .......
    .......
    .......
    .......

u+2886:
uni2886:
    .......
    .@.....
    .......
    .@.....
    .......
    ...@...
    .......
    .......
    .......
    .......
    .......
    .......

u+2887:
uni2887:
    .......
    .@.....
    .......
    .@.....
    .......
    .@.....
    .......
    ...@...
    .......
    .......
    .......
    .......

u+2888:
uni2888:
    .......
    ...@...
    .......
    .......
    .......
    .......
    .......
    ...@...
    .......
    .......
    .......
    .......

u+2889:
uni2889:
    .......
    .@.@...
    .......
    .......
    .......
    .......
    .......
    ...@...
    .......
    .......
    .......
    .......

u+288a:
uni288A:
    .......
    ...@...
    .......
    .@.....
    .......
    .......
    .......
    ...@...
    .......
    .......
    .......
    .......

u+288b:
uni288B:
    .......
    .@.@...
    .......
    .@.....
    .......
    .......
    .......
    ...@...
    .......
    .......
    .......
    .......

u+288c:
uni288C:
    .......
    ...@...
    .......
    .......
    .......
    .@.....
    .......
    ...@...
    .......
    .......
    .......
    .......

u+288d:
uni288D:
    .......
    .@.@...
    .......
    .......
    .......
    .@.....
    .......
    ...@...
    .......
    .......
    .......
    .......

u+288e:
uni288E:
    .......
    ...@...
    .......
    .@.....
    .......
    .@.....
    .......
    ...@...
    .......
    .......
    .......
    .......

u+288f:
uni288F:
    .......
    .@.@...
    .......
    .@.....
    .......
    .@.....
    .......
    ...@...
    .......
    .......
    .......
    .......

u+2890:
uni2890:
    .......
    ...@...
    .......
    .......
    .......
    ...@...
    .......
    .......
    .......
    .......
    .......
    .......

u+2891:
uni2891:
    .......
    .@.....
    .......
    ...@...
    .......
    .......
    .......
    ...@...
    .......
    .......
    .......
    .......

u+2892:
uni2892:
    .......
    .@.@...
    .......
    .......
    .......
    ...@...
    .......
    .......
    .......
    .......
    .......
    .......

u+2893:
uni2893:
    .......
    .@.....
    .......
    .@.@...
    .......
    .......
    .......
    ...@...
    .......
    .......
    .......
    .......

u+2894:
uni2894:
    .......
    ...@...
    .......
    .@.....
    .......
    ...@...
    .......
    .......
    .......
    .......
    .......
    .......

u+2895:
uni2895:
    .......
    .@.....
    .......
    ...@...
    .......
    .@.....
    .......
    ...@...
    .......
    .......
    .......
    .......

u+2896:
uni2896:
    .......
    .@.@...
    .......
    .@.....
    .......
    ...@...
    .......
    .......
    .......
    .......
    .......
    .......

u+2897:
uni2897:
    .......
    .@.....
    .......
    .@.@...
    .......
    .@.....
    .......
    ...@...
    .......
    .......
    .......
    .......

u+2898:
uni2898:
    .......
    ...@...
    .......
    ...@...
    .......
    .......
    .......
    ...@...
    .......
    .......
    .......
    .......

u+2899:
uni2899:
    .......
    .@.@...
    .......
    ...@...
    .......
    .......
    .......
    ...@...
    .......
    .......
    .......
    .......

u+289a:
uni289A:
    .......
    ...@...
    .......
    .@.@...
    .......
    .......
    .......
    ...@...
    .......
    .......
    .......
    .......

u+289b:
uni289B:
    .......
    .@.@...
    .......
    .@.@...
    .......
    .......
    .......
    ...@...
    .......
    .......
    .......
    .......

u+289c:
uni289C:
    .......
    ...@...
    .......
    ...@...
    .......
    .@.....
    .......
    ...@...
    .......
    .......
    .......
    .......

u+289d:
uni289D:
    .......
    .@.@...
    .......
    ...@...
    .......
    .@.....
    .......
    ...@...
    .......
    .......
    .......
    .......

u+289e:
uni289E:
    .......
    ...@...
    .......
    .@.@...
    .......
    .@.....
    .......
    ...@...
    .......
    .......
    .......
    .......

u+289f:
uni289F:
    .......
    .@.@...
    .......
    .@.@...
    .......
    .@.....
    .......
    ...@...
    .......
    .......
    .......
    .......

u+28a0:
uni28A0:
    .......
    ...@...
    .......
    ...@...
    .......
    .......
    .......
    .......
    .......
    .......
    .......
    .......

u+28a1:
uni28A1:
    .......
    .@.....
    .......
    .......
    .......
    ...@...
    .......
    ...@...
    .......
    .......
    .......
    .......

u+28a2:
uni28A2:
    .......
    .@.....
    .......
    ...@...
    .......
    ...@...
    .......
    .......
    .......
    .......
    .......
    .......

u+28a3:
uni28A3:
    .......
    .@.....
    .......
    .@.....
    .......
    ...@...
    .......
    ...@...
    .......
    .......
    .......
    .......

u+28a4:
uni28A4:
    .......
    .@.@...
    .......
    ...@...
    .......
    .......
    .......
    .......
    .......
    .......
    .......
    .......

u+28a5:
uni28A5:
    .......
    .@.....
    .......
    .......
    .......
    .@.@...
    .......
    ...@...
    .......
    .......
    .......
    .......

u+28a6:
uni28A6:
    .......
    .@.....
    .......
    .@.@...
    .......
    ...@...
    .......
    .......
    .......
    .......
    .......
    .......

u+28a7:
uni28A7:
    .......
    .@.....
    .......
    .@.....
    .......
    .@.@...
    .......
    ...@...
    .......
    .......
    .......
    .......

u+28a8:
uni28A8:
    .......
    ...@...
    .......
    .......
    .......
    ...@...
    .......
    ...@...
    .......
    .......
    .......
    .......

u+28a9:
uni28A9:
    .......
    .@.@...
    .......
    .......
    .......
    ...@...
    .......
    ...@...
    .......
    .......
    .......
    .......

u+28aa:
uni28AA:
    .......
    ...@...
    .......
    .@.....
    .......
    ...@...
    .......
    ...@...
    .......
    .......
    .......
    .......

u+28ab:
uni28AB:
    .......
    .@.@...
    .......
    .@.....
    .......
    ...@...
    .......
    ...@...
    .......
    .......
    .......
    .......

u+28ac:
uni28AC:
    .......
    ...@...
    .......
    .......
    .......
    .@.@...
    .......
    ...@...
    .......
    .......
    .......
    .......

u+28ad:
uni28AD:
    .......
    .@.@...
    .......
    .......
    .......
    .@.@...
    .......
    ...@...
    .......
    .......
    .......
    .......

u+28ae:
uni28AE:
    .......
    ...@...
    .......
    .@.....
    .......
    .@.@...
    .......
    ...@...
    .......
    .......
    .......
    .......

u+28af:
uni28AF:
    .......
    .@.@...
    .......
    .@.....
    .......
    .@.@...
    .......
    ...@...
    .......
    .......
    .......
    .......

u+28b0:
uni28B0:
    .......
    ...@...
    .......
    ...@...
    .......
    ...@...
    .......
    .......
    .......
    .......
    .......
    .......

u+28b1:
uni28B1:
    .......
    .@.....
    .......
    ...@...
    .......
    ...@...
    .......
    ...@...
    .......
    .......
    .......
    .......

u+28b2:
uni28B2:
    .......
    .@.@...
    .......
    ...@...
    .......
    ...@...
    .......
    .......
    .......
    .......
    .......
    .......

u+28b3:
uni28B3:
    .......
    .@.....
    .......
    .@.@...
    .......
    ...@...
    .......
    ...@...
    .......
    .......
    .......
    .......

u+28b4:
uni28B4:
    .......
    ...@...
    .......
    .@.@...
    .......
    ...@...
    .......
    .......
    .......
    .......
    .......
    .......

u+28b5:
uni28B5:
    .......
    .@.....
    .......
    ...@...
    .......
    .@.@...
    .......
    ...@...
    .......
    .......
    .......
    .......

u+28b6:
uni28B6:
    .......
    .@.@...
    .......
    .@.@...
    .......
    ...@...
    .......
    .......
    .......
    .......
    .......
    .......

u+28b7:
uni28B7:
    .......
    .@.....
    .......
    .@.@...
    .......
    .@.@...
    .......
    ...@...
    .......
    .......
    .......
    .......

u+28b8:
uni28B8:
    .......
    ...@...
    .......
    ...@...
    .......
    ...@...
    .......
    ...@...
    .......
    .......
    .......
    .......

u+28b9:
uni28B9:
    .......
    .@.@...
    .......
    ...@...
    .......
    ...@...
    .......
    ...@...
    .......
    .......
    .......
    .......

u+28ba:
uni28BA:
    .......
    ...@...
    .......
    .@.@...
    .......
    ...@...
    .......
    ...@...
    .......
    .......
    .......
    .......

u+28bb:
uni28BB:
    .......
    .@.@...
    .......
    .@.@...
    .......
    ...@...
    .......
    ...@...
    .......
    .......
    .......
    .......

u+28bc:
uni28BC:
    .......
    ...@...
    .......
    ...@...
    .......
    .@.@...
    .......
    ...@...
    .......
    .......
    .......
    .......

u+28bd:
uni28BD:
    .......
    .@.@...
    .......
    ...@...
    .......
    .@.@...
    .......
    ...@...
    .......
    .......
    .......
    .......

u+28be:
uni28BE:
    .......
    ...@...
    .......
    .@.@...
    .......
    .@.@...
    .......
    ...@...
    .......
    .......
    .......
    .......

u+28bf:
uni28BF:
    .......
    .@.@...
    .......
    .@.@...
    .......
    .@.@...
    .......
    ...@...
    .......
    .......
    .......
    .......

u+28c0:
uni28C0:
    .......
    .@.@...
    .......
    .......
    .......
    .......
    .......
    .......
    .......
    .......
    .......
    .......

u+28c1:
uni28C1:
    .......
    .@.....
    .......
    .......
    .......
    .......
    .......
    .@.@...
    .......
    .......
    .......
    .......

u+28c2:
uni28C2:
    .......
    .@.....
    .......
    .......
    .......
    .@.@...
    .......
    .......
    .......
    .......
    .......
    .......

u+28c3:
uni28C3:
    .......
    .@.....
    .......
    .@.....
    .......
    .......
    .......
    .@.@...
    .......
    .......
    .......
    .......

u+28c4:
uni28C4:
    .......
    .@.....
    .......
    .@.@...
    .......
    .......
    .......
    .......
    .......
    .......
    .......
    .......

u+28c5:
uni28C5:
    .......
    .@.....
    .......
    .......
    .......
    .@.....
    .......
    .@.@...
    .......
    .......
    .......
    .......

u+28c6:
uni28C6:
    .......
    .@.....
    .......
    .@.....
    .......
    .@.@...
    .......
    .......
    .......
    .......
    .......
    .......

u+28c7:
uni28C7:
    .......
    .@.....
    .......
    .@.....
    .......
    .@.....
    .......
    .@.@...
    .......
    .......
    .......
    .......

u+28c8:
uni28C8:
    .......
    ...@...
    .......
    .......
    .......
    .......
    .......
    .@.@...
    .......
    .......
    .......
    .......

u+28c9:
uni28C9:
    .......
    .@.@...
    .......
    .......
    .......
    .......
    .......
    .@.@...
    .......
    .......
    .......
    .......

u+28ca:
uni28CA:
    .......
    ...@...
    .......
    .@.....
    .......
    .......
    .......
    .@.@...
    .......
    .......
    .......
    .......

u+28cb:
uni28CB:
    .......
    .@.@...
    .......
    .@.....
    .......
    .......
    .......
    .@.@...
    .......
    .......
    .......
    .......

u+28cc:
uni28CC:
    .......
    ...@...
    .......
    .......
    .......
    .@.....
    .......
    .@.@...
    .......
    .......
    .......
    .......

u+28cd:
uni28CD:
    .......
    .@.@...
    .......
    .......
    .......
    .@.....
    .......
    .@.@...
    .......
    .......
    .......
    .......

u+28ce:
uni28CE:
    .......
    ...@...
    .......
    .@.....
    .......
    .@.....
    .......
    .@.@...
    .......
    .......
    .......
    .......

u+28cf:
uni28CF:
    .......
    .@.@...
    .......
    .@.....
    .......
    .@.....
    .......
    .@.@...
    .......
    .......
    .......
    .......

u+28d0:
uni28D0:
    .......
    ...@...
    .......
    .......
    .......
    .@.@...
    .......
    .......
    .......
    .......
    .......
    .......

u+28d1:
uni28D1:
    .......
    .@.....
    .......
    ...@...
    .......
    .......
    .......
    .@.@...
    .......
    .......
    .......
    .......

u+28d2:
uni28D2:
    .......
    .@.@...
    .......
    .......
    .......
    .@.@...
    .......
    .......
    .......
    .......
    .......
    .......

u+28d3:
uni28D3:
    .......
    .@.....
    .......
    .@.@...
    .......
    .......
    .......
    .@.@...
    .......
    .......
    .......
    .......

u+28d4:
uni28D4:
    .......
    ...@...
    .......
    .@.....
    .......
    .@.@...
    .......
    .......
    .......
    .......
    .......
    .......

u+28d5:
uni28D5:
    .......
    .@.....
    .......
    ...@...
    .......
    .@.....
    .......
    .@.@...
    .......
    .......
    .......
    .......

u+28d6:
uni28D6:
    .......
    .@.@...
    .......
    .@.....
    .......
    .@.@...
    .......
    .......
    .......
    .......
    .......
    .......

u+28d7:
uni28D7:
    .......
    .@.....
    .......
    .@.@...
    .......
    .@.....
    .......
    .@.@...
    .......
    .......
    .......
    .......

u+28d8:
uni28D8:
    .......
    ...@...
    .......
    ...@...
    .......
    .......
    .......
    .@.@...
    .......
    .......
    .......
    .......

u+28d9:
uni28D9:
    .......
    .@.@...
    .......
    ...@...
    .......
    .......
    .......
    .@.@...
    .......
    .......
    .......
    .......

u+28da:
uni28DA:
    .......
    ...@...
    .......
    .@.@...
    .......
    .......
    .......
    .@.@...
    .......
    .......
    .......
    .......

u+28db:
uni28DB:
    .......
    .@.@...
    .......
    .@.@...
    .......
    .......
    .......
    .@.@...
    .......
    .......
    .......
    .......

u+28dc:
uni28DC:
    .......
    ...@...
    .......
    ...@...
    .......
    .@.....
    .......
    .@.@...
    .......
    .......
    .......
    .......

u+28dd:
uni28DD:
    .......
    .@.@...
    .......
    ...@...
    .......
    .@.....
    .......
    .@.@...
    .......
    .......
    .......
    .......

u+28de:
uni28DE:
    .......
    ...@...
    .......
    .@.@...
    .......
    .@.....
    .......
    .@.@...
    .......
    .......
    .......
    .......

u+28df:
uni28DF:
    .......
    .@.@...
    .......
    .@.@...
    .......
    .@.....
    .......
    .@.@...
    .......
    .......
    .......
    .......

u+28e0:
uni28E0:
    .......
    ...@...
    .......
    .@.@...
    .......
    .......
    .......
    .......
    .......
    .......
    .......
    .......

u+28e1:
uni28E1:
    .......
    .@.....
    .......
    .......
    .......
    ...@...
    .......
    .@.@...
    .......
    .......
    .......
    .......

u+28e2:
uni28E2:
    .......
    .@.....
    .......
    ...@...
    .......
    .@.@...
    .......
    .......
    .......
    .......
    .......
    .......

u+28e3:
uni28E3:
    .......
    .@.....
    .......
    .@.....
    .......
    ...@...
    .......
    .@.@...
    .......
    .......
    .......
    .......

u+28e4:
uni28E4:
    .......
    .@.@...
    .......
    .@.@...
    .......
    .......
    .......
    .......
    .......
    .......
    .......
    .......

u+28e5:
uni28E5:
    .......
    .@.....
    .......
    .......
    .......
    .@.@...
    .......
    .@.@...
    .......
    .......
    .......
    .......

u+28e6:
uni28E6:
    .......
    .@.....
    .......
    .@.@...
    .......
    .@.@...
    .......
    .......
    .......
    .......
    .......
    .......

u+28e7:
uni28E7:
    .......
    .@.....
    .......
    .@.....
    .......
    .@.@...
    .......
    .@.@...
    .......
    .......
    .......
    .......

u+28e8:
uni28E8:
    .......
    ...@...
    .......
    .......
    .......
    ...@...
    .......
    .@.@...
    .......
    .......
    .......
    .......

u+28e9:
uni28E9:
    .......
    .@.@...
    .......
    .......
    .......
    ...@...
    .......
    .@.@...
    .......
    .......
    .......
    .......

u+28ea:
uni28EA:
    .......
    ...@...
    .......
    .@.....
    .......
    ...@...
    .......
    .@.@...
    .......
    .......
    .......
    .......

u+28eb:
uni28EB:
    .......
    .@.@...
    .......
    .@.....
    .......
    ...@...
    .......
    .@.@...
    .......
    .......
    .......
    .......

u+28ec:
uni28EC:
    .......
    ...@...
    .......
    .......
    .......
    .@.@...
    .......
    .@.@...
    .......
    .......
    .......
    .......

u+28ed:
uni28ED:
    .......
    .@.@...
    .......
    .......
    .......
    .@.@...
    .......
    .@.@...
    .......
    .......
    .......
    .......

u+28ee:
uni28EE:
    .......
    ...@...
    .......
    .@.....
    .......
    .@.@...
    .......
    .@.@...
    .......
    .......
    .......
    .......

u+28ef:
uni28EF:
    .......
    .@.@...
    .......
    .@.....
    .......
    .@.@...
    .......
    .@.@...
    .......
    .......
    .......
    .......

u+28f0:
uni28F0:
    .......
    ...@...
    .......
    ...@...
    .......
    .@.@...
    .......
    .......
    .......
    .......
    .......
    .......

u+28f1:
uni28F1:
    .......
    .@.....
    .......
    ...@...
    .......
    ...@...
    .......
    .@.@...
    .......
    .......
    .......
    .......

u+28f2:
uni28F2:
    .......
    .@.@...
    .......
    ...@...
    .......
    .@.@...
    .......
    .......
    .......
    .......
    .......
    .......

u+28f3:
uni28F3:
    .......
    .@.....
    .......
    .@.@...
    .......
    ...@...
    .......
    .@.@...
    .......
    .......
    .......
    .......

u+28f4:
uni28F4:
    .......
    ...@...
    .......
    .@.@...
    .......
    .@.@...
    .......
    .......
    .......
    .......
    .......
    .......

u+28f5:
uni28F5:
    .......
    .@.....
    .......
    ...@...
    .......
    .@.@...
    .......
    .@.@...
    .......
    .......
    .......
    .......

u+28f6:
uni28F6:
    .......
    .@.@...
    .......
    .@.@...
    .......
    .@.@...
    .......
    .......
    .......
    .......
    .......
    .......

u+28f7:
uni28F7:
    .......
    .@.....
    .......
    .@.@...
    .......
    .@.@...
    .......
    .@.@...
    .......
    .......
    .......
    .......

u+28f8:
uni28F8:
    .......
    ...@...
    .......
    ...@...
    .......
    ...@...
    .......
    .@.@...
    .......
    .......
    .......
    .......

u+28f9:
uni28F9:
    .......
    .@.@...
    .......
    ...@...
    .......
    ...@...
    .......
    .@.@...
    .......
    .......
    .......
    .......

u+28fa:
uni28FA:
    .......
    ...@...
    .......
    .@.@...
    .......
    ...@...
    .......
    .@.@...
    .......
    .......
    .......
    .......

u+28fb:
uni28FB:
    .......
    .@.@...
    .......
    .@.@...
    .......
    ...@...
    .......
    .@.@...
    .......
    .......
    .......
    .......

u+28fc:
uni28FC:
    .......
    ...@...
    .......
    ...@...
    .......
    .@.@...
    .......
    .@.@...
    .......
    .......
    .......
    .......

u+28fd:
uni28FD:
    .......
    .@.@...
    .......
    ...@...
    .......
    .@.@...
    .......
    .@.@...
    .......
    .......
    .......
    .......

u+28fe:
uni28FE:
    .......
    ...@...
    .......
    .@.@...
    .......
    .@.@...
    .......
    .@.@...
    .......
    .......
    .......
    .......

u+28ff:
uni28FF:
    .......
    .@.@...
    .......
    .@.@...
    .......
    .@.@...
    .......
    .@.@...
    .......
    .......
    .......
    .......

u+2919:
uni2919:
    .......
    .......
    .......
    ....@..
    ...@...
    @@@....
    ...@...
    ....@..
    .......
    .......
    .......
    .......

u+291a:
uni291A:
    .......
    .......
    .......
    @......
    .@.....
    ..@@@@.
    .@.....
    @......
    .......
    .......
    .......
    .......

u+291b:
uni291B:
    .......
    .......
    .......
    ....@.@
    ...@.@.
    @@@.@..
    ...@.@.
    ....@.@
    .......
    .......
    .......
    .......

u+291c:
uni291C:
    .......
    .......
    .......
    @.@....
    .@.@...
    ..@.@@@
    .@.@...
    @.@....
    .......
    .......
    .......
    .......

u+2b60:
uni2B60:
    .......
    .......
    .......
    .@.....
    .@.@...
    .@@@@..
    .@.@...
    .@.@...
    .@@....
    .@.....
    .@.....
    .......

u+2b61:
uni2B61:
    .......
    .......
    .......
    .@.....
    .@.....
    .@.....
    .@@....
    ..@@...
    ..@.@..
    ..@.@..
    ..@.@..
    .......

u+2b62:
uni2B62:
    .......
    .......
    .......
    ..@....
    .@.....
    .@@@...
    .@.@...
    .@.@@..
    @..@...
    ...@...
    ....@..
    .......

u+2b64:
uni2B64:
    .......
    .......
    .......
    ..@@...
    .@..@..
    .@..@..
    .@@@@..
    .@@.@..
    .@@.@..
    .@@@@..
    .......
    .......

u+2b80:
uni2B80:
    .......
    .......
    .......
    .@.....
    .@@....
    .@@@...
    .@@@@..
    .@@@@@.
    .@@@@..
    .@@@...
    .@@....
    .@.....

u+2b81:
uni2B81:
    .......
    .......
    .......
    .@.....
    ..@....
    ...@...
    ....@..
    .....@.
    ....@..
    ...@...
    ..@....
    .@.....

u+2b82:
uni2B82:
    .......
    .......
    .......
    .....@.
    ....@@.
    ...@@@.
    ..@@@@.
    .@@@@@.
    ..@@@@.
    ...@@@.
    ....@@.
    .....@.

u+2b83:
uni2B83:
    .......
    .......
    .......
    .....@.
    ....@..
    ...@...
    ..@....
    .@.....
    ..@....
    ...@...
    ....@..
    .....@.

u+e0a0:
uniE0A0:
    .......
    .......
    .......
    .@.....
    .@.@...
    .@@@@..
    .@.@...
    .@.@...
    .@@....
    .@.....
    .@.....
    .......

u+e0a1:
uniE0A1:
    .......
    .......
    .......
    .@.....
    .@.....
    .@.....
    .@@....
    ..@@...
    ..@.@..
    ..@.@..
    ..@.@..
    .......

u+e0a2:
uniE0A2:
    .......
    .......
    .......
    ..@@...
    .@..@..
    .@..@..
    .@@@@..
    .@@.@..
    .@@.@..
    .@@@@..
    .......
    .......

u+e0b0:
uniE0B0:
    .......
    .......
    .@.....
    .@@....
    .@@@...
    .@@@@..
    .@@@@@.
    .@@@@@.
    .@@@@..
    .@@@...
    .@@....
    .@.....

u+e0b1:
uniE0B1:
    .......
    .......
    .@.....
    ..@....
    ...@...
    ....@..
    .....@.
    .....@.
    ....@..
    ...@...
    ..@....
    .@.....

u+e0b2:
uniE0B2:
    .......
    .......
    .....@.
    ....@@.
    ...@@@.
    ..@@@@.
    .@@@@@.
    .@@@@@.
    ..@@@@.
    ...@@@.
    ....@@.
    .....@.

u+e0b3:
uniE0B3:
    .......
    .......
    .....@.
    ....@..
    ...@...
    ..@....
    .@.....
    .@.....
    ..@....
    ...@...
    ....@..
    .....@.

u+e0c0:
uniE0C0:
    .......
    .......
    .......
    @.@....
    .@.@...
    ..@.@..
    .@.@.@.
    @.@...@
    .......
    .......
    .......
    .......

u+e0c1:
uniE0C1:
    .......
    .......
    .......
    ...@...
    ....@..
    .....@.
    ....@..
    ...@...
    .......
    .......
    .......
    .......

u+e0c2:
uniE0C2:
    .......
    .......
    .@.@...
    .@.@...
    @@@@@..
    .@@@...
    .@@@...
    ..@....
    ..@....
    ..@....
    .......
    .......

u+e0c3:
uniE0C3:
    .......
    .......
    .......
    .@.....
    ..@@@@.
    .......
    ..@@@@.
    .@.....
    .......
    .......
    .......
    .......

u+e0c4:
uniE0C4:
    .......
    .......
    .......
    .@.@...
    ..@.@@@
    ...@...
    ..@.@@@
    .@.@...
    .......
    .......
    .......
    .......

u+e0c5:
uniE0C5:
    .......
    .......
    .......
    ....@..
    @@@@...
    .......
    @@@@...
    ....@..
    .......
    .......
    .......
    .......

u+e0c6:
uniE0C6:
    .......
    .......
    .......
    ...@.@.
    @@@.@..
    ...@...
    @@@.@..
    ...@.@.
    .......
    .......
    .......
    .......

u+e0d1:
uniE0D1:
    .......
    .......
    .......
    ..@....
    .@.....
    @......
    .@.....
    ..@....
    .......
    .......
    .......
    .......

u+f031:
uniF031:
    .......
    .......
    .......
    .@@@@..
    .@@@@..
    .@..@..
    .@..@..
    .@@@@..
    .......
    .......
    .......
    .......

u+f033:
uniF033:
    .......
    .......
    .......
    ...@...
    ..@@...
    .@@@...
    ..@@...
    ...@...
    .......
    .......
    .......
    .......

u+f034:
uniF034:
    .......
    .......
    .......
    .@.....
    .@@....
    .@@@...
    .@@....
    .@.....
    .......
    .......
    .......
    .......

u+f035:
uniF035:
    .......
    .......
    .......
    .......
    ..@....
    .@@@...
    @@@@@..
    .......
    .......
    .......
    .......
    .......

u+f036:
uniF036:
    .......
    .......
    .......
    .......
    @@@@@..
    .@@@...
    ..@....
    .......
    .......
    .......
    .......
    .......

u+f037:
uniF037:
    .......
    .......
    .......
    .......
    ..@.@..
    .@@@@..
    ..@.@..
    .......
    .......
    .......
    .......
    .......

u+f038:
uniF038:
    .......
    .......
    .......
    .......
    .@.@...
    .@@@@..
    .@.@...
    .......
    .......
    .......
    .......
    .......

u+f039:
uniF039:
    .......
    .......
    .......
    @......
    @.@.@..
    @@@@@..
    @.@.@..
    @......
    .......
    .......
    .......
    .......

u+f03a:
uniF03A:
    .......
    .......
    .......
    .....@.
    .@.@.@.
    .@@@@@.
    .@.@.@.
    .....@.
    .......
    .......
    .......
    .......

u+f03b:
uniF03B:
    .......
    .......
    .......
    .@.@...
    .@.@...
    .@.@...
    .@.@...
    .......
    .......
    .......
    .......
    .......

u+f03c:
uniF03C:
    .......
    .......
    .......
    .@@@@..
    .@@@@..
    .@@@@..
    .@@@@..
    .......
    .......
    .......
    .......
    .......

u+f03d:
uniF03D:
    .......
    .......
    .......
    ..@@...
    .@@@@..
    .@@@@..
    ..@@...
    .......
    .......
    .......
    .......
    .......

u+f057:
uniF057:
    .......
    .......
    .@.....
    .@@....
    .@@@@..
    .@@@@..
    .@@@@..
    .@@....
    .@.....
    .......
    .......
    .......

u+f058:
uniF058:
    .......
    .......
    ....@..
    ...@@..
    .@@@@..
    .@@@@..
    .@@@@..
    ...@@..
    ....@..
    .......
    .......
    .......

u+f059:
uniF059:
    .......
    .......
    .......
    ..@.@..
    .@@@@@.
    .@@@@@.
    ..@@@..
    ...@...
    .......
    .......
    .......
    .......

u+f061:
uniF061:
    .......
    .......
    .......
    .....@@
    .@@.@@.
    ..@@@..
    ...@...
    .......
    .......
    .......
    .......
    .......

u+f073:
uniF073:
    .......
    ..@@...
    .@@@@..
    @@..@@.
    @@..@@.
    ...@@..
    ..@@...
    ..@@...
    .......
    ..@@...
    .......
    .......

u+f078:
uniF078:
    .......
    .......
    .......
    ..@@@..
    .@@..@.
    .@.@.@.
    .@..@@.
    ..@@@..
    .......
    .......
    .......
    .......

u+f079:
uniF079:
    .......
    .......
    .......
    ..@@@..
    .@...@.
    .@@@@@.
    .@...@.
    ..@@@..
    .......
    .......
    .......
    .......

u+f07e:
uniF07E:
    .......
    .......
    .......
    ....@..
    ...@...
    ..@@@..
    .@@@...
    ..@....
    .@.....
    .......
    .......
    .......

u+f0cf:
uniF0CF:
    .......
    .......
    .......
    ..@@...
    .@..@..
    .@..@..
    .@@@@..
    .@@.@..
    .@@.@..
    .@@@@..
    .......
    .......

u+f0d0:
uniF0D0:
    .......
    .......
    .......
    ..@@...
    .@..@..
    ....@..
    ....@..
    .@@@@..
    .@@.@..
    .@@.@..
    .@@@@..
    .......

u+f0d1:
uniF0D1:
    .......
    .......
    ..@@...
    ..@@...
    ..@....
    ..@....
    ..@....
    .@.@...
    ..@....
    .......
    .......
    .......

u+f0d5:
uniF0D5:
    .......
    .......
    ...@...
    @.@..@.
    .@@@@..
    .@..@@.
    @@..@.@
    .@@@@..
    @..@.@.
    ..@....
    .......
    .......

u+f0d6:
uniF0D6:
    .......
    .......
    .......
    ...@...
    @.@..@.
    .@@@@..
    .@..@@.
    @@.@@@@
    .@@@@@@
    @@@@@@@
    .......
    .......

u+f0d7:
uniF0D7:
    .......
    .......
    .......
    .......
    .......
    .@@....
    @..@@@.
    @.@@@@@
    .@@@@@@
    .......
    .......
    .......

u+f0d8:
uniF0D8:
    .......
    .......
    .@@....
    @..@@@.
    @.@@@@@
    .@@@@@@
    .......
    ...@.@.
    ..@.@..
    .......
    .......
    .......

u+f0d9:
uniF0D9:
    .......
    .......
    .......
    .......
    .......
    .......
    ....@..
    ..@@@@.
    .@@@@@@
    .......
    .......
    .......

u+f0da:
uniF0DA:
    .......
    .......
    ....@..
    ..@@@@.
    .@@@@@@
    .......
    .@.@.@.
    .......
    @.@.@..
    .......
    .......
    .......

u+f0db:
uniF0DB:
    .......
    .......
    .......
    ....@..
    ..@@@@.
    .@@@@@@
    .......
    .@.@.@.
    @.@.@..
    .......
    .......
    .......

u+f0dc:
uniF0DC:
    .......
    .......
    ....@..
    ..@@@@.
    .@@@@@@
    ....@..
    ...@@..
    ...@...
    ..@....
    .......
    .......
    .......

u+f0de:
uniF0DE:
    .......
    .......
    .......
    ..@.@..
    .@.@...
    .......
    ....@.@
    ...@.@.
    .......
    ..@.@..
    .@.@...
    .......

u+f0df:
uniF0DF:
    .......
    .......
    .......
    .@.@.@.
    ..@.@..
    .@.@.@.
    ..@.@..
    .@.@.@.
    .......
    .......
    .......
    .......

u+f0e0:
uniF0E0:
    .......
    .......
    .......
    ..@@@..
    .@.@@@.
    .@..@@.
    .@..@@.
    ..@@@..
    .......
    .......
    .......
    .......

u+f0ed:
uniF0ED:
    .......
    .......
    .......
    ...@...
    @..@..@
    .@...@.
    .......
    .......
    .......
    .......
    .......
    .......

u+f0ee:
uniF0EE:
    .......
    .......
    .......
    .......
    .......
    .......
    .......
    .@...@.
    @..@..@
    ...@...
    .......
    .......

u+f0ef:
uniF0EF:
    .......
    .......
    ...@...
    ....@..
    .......
    ..@@...
    .......
    ....@..
    ...@...
    .......
    .......
    .......

u+f0f0:
uniF0F0:
    .......
    .......
    ..@....
    .@.....
    .......
    ..@@...
    .......
    .@.....
    ..@....
    .......
    .......
    .......

